<?xml version="1.0" encoding="utf-8"?>
<!-- Generator: Adobe Illustrator 23.0.1, SVG Export Plug-In . SVG Version: 6.00 Build 0)  -->
<svg version="1.1" id="Layer_1" xmlns="http://www.w3.org/2000/svg" xmlns:xlink="http://www.w3.org/1999/xlink" x="0px" y="0px"
	 viewBox="0 0 603.3 813.8" style="enable-background:new 0 0 603.3 813.8;" xml:space="preserve">
<style type="text/css">
	.st0{fill:#5446E0;}
	.st1{fill:#5850A7;}
	.st2{fill:#0F0F0F;}
	.st3{fill:url(#Rectangle_68_1_);}
	.st4{fill:#FEFEFE;}
	.st5{fill:none;stroke:#FEFEFE;stroke-miterlimit:10;}
	.st6{fill:#23D1D1;}
	.st7{fill:#21E6B9;}
	.st8{opacity:0.85;fill:#23D1A9;}
	.st9{fill:#B8CBF4;}
</style>
<g id="Group_453" transform="translate(-12397.796 -2155.272)">
	<g id="Group_446" transform="translate(12397.796 2155.272)">
		<g id="Group_441" transform="translate(0)">
			<g id="Group_221">
				<g id="Group_216" transform="translate(0 0)">
					<path id="Path_317" class="st0" d="M170,126.4l-29.3,39.5l-46.5-34.2c-10.9-8.1-13.2-23.5-5.1-34.4c0,0,0,0,0,0l0,0
						c8.1-10.9,23.5-13.2,34.4-5.1L170,126.4z"/>
					<path id="Path_318" class="st1" d="M359.3,510.1L359.3,510.1c-13.2,0-26-4.2-36.7-11.9L242,439.5l111.2-67.9L359.3,510.1z"/>
					<path id="Rectangle_67" class="st2" d="M144.9,0h185.8c10.1,0,18.3,8.2,18.3,18.3v415.4c0,10.1-8.2,18.3-18.3,18.3H144.9
						c-10.1,0-18.3-8.2-18.3-18.3V18.3C126.6,8.2,134.8,0,144.9,0z"/>
					
						<linearGradient id="Rectangle_68_1_" gradientUnits="userSpaceOnUse" x1="-653.0873" y1="947.6152" x2="-653.0873" y2="946.6152" gradientTransform="matrix(192.52 0 0 -343.041 125970.2266 325125.3438)">
						<stop  offset="0" style="stop-color:#FFA326"/>
						<stop  offset="1" style="stop-color:#FF8879"/>
					</linearGradient>
					<path id="Rectangle_68" class="st3" d="M150.6,54.5h174.5c5,0,9,4,9,9v325c0,5-4,9-9,9H150.6c-5,0-9-4-9-9v-325
						C141.6,58.5,145.6,54.5,150.6,54.5z"/>
					<ellipse id="Ellipse_23" class="st4" cx="201.1" cy="28.5" rx="3.3" ry="3.3"/>
					<line id="Line_11" class="st5" x1="220.4" y1="28.5" x2="252" y2="28.5"/>
					<path id="Path_319" class="st4" d="M237.8,15.6c0,1.2-0.9,2.1-2.1,2.1c-1.2,0-2.1-0.9-2.1-2.1c0-1.2,0.9-2.1,2.1-2.1
						S237.8,14.5,237.8,15.6C237.8,15.6,237.8,15.6,237.8,15.6z"/>
					<ellipse id="Ellipse_24" class="st5" cx="237.8" cy="422.9" rx="17.9" ry="17.9"/>
					<path id="Path_320" class="st0" d="M84.5,210.4l9.6-14.5c5.6-8.4,17-10.7,25.4-5.2l37.8,24.9c12.4,8.3,15.8,25.1,7.5,37.5
						c0,0,0,0,0,0l0,0c-8.3,12.4-25.1,15.8-37.5,7.5c0,0,0,0,0,0L89.7,236C81.3,230.4,78.9,219,84.5,210.4
						C84.5,210.5,84.5,210.5,84.5,210.4z"/>
					<path id="Path_321" class="st0" d="M80.6,282.8l5-16.7c2.9-9.7,13.1-15.2,22.8-12.4l43.4,12.7c14.3,4.3,22.5,19.3,18.2,33.7
						c0,0,0,0,0,0l0,0c-4.3,14.3-19.3,22.5-33.7,18.2c0,0,0,0,0,0L93,305.6C83.3,302.8,77.7,292.6,80.6,282.8
						C80.6,282.8,80.6,282.8,80.6,282.8z"/>
					<path id="Path_322" class="st0" d="M94.5,358.5L92.1,344c-1.4-8.5,4.3-16.4,12.8-17.9l37.8-6.4c12.5-2,24.3,6.4,26.4,18.9
						c0,0,0,0,0,0l0,0c2.1,12.5-6.4,24.3-18.9,26.4c0,0,0,0,0,0l-37.7,6.3C104,372.8,95.9,367.1,94.5,358.5
						C94.5,358.6,94.5,358.6,94.5,358.5z"/>
					<path id="Path_323" class="st0" d="M603.3,575L445.8,376v-50.8c0-19.6-5.8-38.7-16.6-55l-12.6-18.9L366,132.9l0,0
						c-25.5,5.7-41.6,30.9-35.9,56.4c0.1,0.5,0.2,1,0.4,1.5l18.7,89.2c0,0-20.2,56.9,0,138.5l10.3,91.7l244,303.6V575z"/>
					<path id="Rectangle_69" class="st6" d="M14.5,457.4L55.8,442c8-3,16.9,1.1,19.9,9.1l15.4,41.3c3,8-1.1,16.9-9.1,19.9
						l-41.3,15.4c-8,3-16.9-1.1-19.9-9.1L5.4,477.3C2.4,469.3,6.5,460.4,14.5,457.4z"/>
					<path id="Path_670" class="st7" d="M452.7,88.2L481,122c5.5,6.6,15.2,7.4,21.8,1.9l33.8-28.2c6.6-5.5,7.4-15.2,1.9-21.8
						l-28.2-33.8c-5.5-6.6-15.2-7.4-21.8-1.9c0,0,0,0,0,0l-33.8,28.2C448.1,71.9,447.3,81.6,452.7,88.2z"/>
					<path id="Path_324" class="st8" d="M240.7,592.6L240.7,592.6c-3.2,6.9-11.4,10-18.3,6.8l0,0c-6.9-3.2-10-11.4-6.8-18.3l0,0
						c3.2-6.9,11.4-10,18.3-6.8l0,0C240.8,577.5,243.9,585.7,240.7,592.6z"/>
					<path id="Rectangle_72" class="st9" d="M28.1,51.6V33.4c0-5.7,4.6-10.2,10.2-10.2h18.2c6.5,0,11.7,5.2,11.7,11.7v18.2
						c0,5.7-4.6,10.2-10.2,10.2H39.8C33.4,63.3,28.1,58.1,28.1,51.6z"/>
				</g>
			</g>
		</g>
	</g>
</g>
</svg>
