<svg xmlns="http://www.w3.org/2000/svg" xmlns:xlink="http://www.w3.org/1999/xlink" width="720" height="595" viewBox="0 0 720 595">
  <defs>
    <clipPath id="clip-path">
      <rect id="Rectangle_83" data-name="Rectangle 83" width="720" height="595" transform="translate(172 0)" fill="none"/>
    </clipPath>
    <filter id="Path_390" x="-25.805" y="11.594" width="536.655" height="583.522" filterUnits="userSpaceOnUse">
      <feOffset dy="10" input="SourceAlpha"/>
      <feGaussianBlur stdDeviation="5" result="blur"/>
      <feFlood flood-opacity="0.102"/>
      <feComposite operator="in" in2="blur"/>
      <feComposite in="SourceGraphic"/>
    </filter>
    <clipPath id="clip-path-2">
      <path id="Path_512" data-name="Path 512" d="M108.042,140.643,99.621,434l96.292-42.8,21.581,1.059.036-15.93.143-62.507.119-51.847.143-62.9.071-31.277.083-37.571-34.394,3.26-28.648,2.7Z" transform="translate(-99.621 -130.233)" fill="none"/>
    </clipPath>
  </defs>
  <g id="Group_454" data-name="Group 454" transform="translate(-11561.001 -2785)">
    <g id="Group_448" data-name="Group 448" transform="translate(11561 -230)">
      <g id="Group_447" data-name="Group 447">
        <g id="Group_443" data-name="Group 443">
          <g id="Group_365" data-name="Group 365" transform="translate(-172.412 3015.082)">
            <g id="Group_240" data-name="Group 240" transform="translate(0.413 -0.082)">
              <g id="Group_239" data-name="Group 239" transform="translate(0 0)" clip-path="url(#clip-path)">
                <path id="Path_371" data-name="Path 371" d="M39.832,307.586c4.564-6.853,10.1-13.015,14.683-19.854,8.8-13.128,13.831-28.339,20.039-42.871,5.551-13,15-27.431,29.132-27.185,12.38.215,21.5,12.2,24.818,24.127A60.577,60.577,0,0,1,119.28,292.9c-9.023,12.4-22.362,20.789-34.638,29.982s-24.3,20.275-28.583,35c-2.219,7.632-2.264,15.982-6.034,22.979-3.138,5.822-12.379,12-18.3,6.769-4.494-3.966-5.172-19.118-5.671-24.636A86.667,86.667,0,0,1,39.832,307.586Z" transform="translate(730.66 41.373)" fill="#4855a9"/>
                <path id="Path_372" data-name="Path 372" d="M61.308,360.855c-5.041-1-6.445-7.488-6.412-12.626a112.936,112.936,0,0,1,3.926-28.79c3.956-14.588,10.9-28.709,10.888-43.823,0-6.729-1.4-13.366-2.592-19.988-2.564-14.234-4.21-28.878-1.714-43.123S75,184.324,86.943,176.174c5.155-3.516,11.306-5.908,17.533-5.508s12.443,3.988,14.88,9.733c3.941,9.3-2.7,19.4-8.759,27.479q-6.506,8.673-12.645,17.614c-3.129,4.557-6.22,9.232-7.992,14.468-4.373,12.911-.182,26.929.917,40.515a89.4,89.4,0,0,1-23.434,67.3Z" transform="translate(706.007 32.447)" fill="#4855a9"/>
                <path id="Path_373" data-name="Path 373" d="M38.968,178.151q-.657,7.906-1.312,15.812a2.812,2.812,0,0,0,.268,1.836,2.275,2.275,0,0,0,1.481.815c2.878.578,5.866-1.1,7.539-3.511a16.325,16.325,0,0,0,2.425-8.351,14.343,14.343,0,0,0-.783-6.479,6.488,6.488,0,0,0-4.8-4.065c-2.175-.3-4.59,1.235-4.8,3.419" transform="translate(797.673 33.12)" fill="#4855a9"/>
                <g id="Group_237" data-name="Group 237" transform="translate(768.197 263.889)">
                  <path id="Path_374" data-name="Path 374" d="M91.821,258.048a60.943,60.943,0,0,0-11.852,23.168" transform="translate(-63.299 -214.857)" fill="none" stroke="#fff" stroke-linecap="round" stroke-linejoin="round" stroke-width="0.75"/>
                  <path id="Path_375" data-name="Path 375" d="M114.063,221.744c3.015,19.4-4.818,38.992-15.543,55.439S74.134,308.006,63.4,324.447s-18.584,36.022-15.6,55.427" transform="translate(-47.164 -221.744)" fill="none" stroke="#fff" stroke-linecap="round" stroke-linejoin="round" stroke-width="0.75"/>
                  <path id="Path_376" data-name="Path 376" d="M67.1,242.575A78.542,78.542,0,0,1,28.242,273.5" transform="translate(22.965 -217.792)" fill="none" stroke="#fff" stroke-linecap="round" stroke-linejoin="round" stroke-width="0.75"/>
                  <path id="Path_377" data-name="Path 377" d="M93.161,287.758A147.65,147.65,0,0,1,42.48,303" transform="translate(-20.039 -209.221)" fill="none" stroke="#fff" stroke-linecap="round" stroke-linejoin="round" stroke-width="0.75"/>
                  <path id="Path_378" data-name="Path 378" d="M105.9,331.335a49.621,49.621,0,0,0-17.225,9.038" transform="translate(-87.731 -200.954)" fill="none" stroke="#fff" stroke-linecap="round" stroke-linejoin="round" stroke-width="0.75"/>
                  <path id="Path_379" data-name="Path 379" d="M79.06,229.9a310.477,310.477,0,0,1-10.121,43.35,76.445,76.445,0,0,0-3.216,12.5,22.038,22.038,0,0,0,1.629,12.633" transform="translate(-33.281 -220.197)" fill="none" stroke="#fff" stroke-linecap="round" stroke-linejoin="round" stroke-width="0.75"/>
                  <path id="Path_380" data-name="Path 380" d="M100.219,290.114A91.156,91.156,0,0,0,96.2,330.227" transform="translate(-90.183 -208.774)" fill="none" stroke="#fff" stroke-linecap="round" stroke-linejoin="round" stroke-width="0.75"/>
                </g>
                <g id="Group_238" data-name="Group 238" transform="translate(767.654 211.259)">
                  <path id="Path_381" data-name="Path 381" d="M112.747,177.506A49.4,49.4,0,0,0,80.3,205.959c-6.874,16.676-4.015,35.5-3.386,53.527s-2.24,38.329-16.52,49.35" transform="translate(-60.394 -177.506)" fill="none" stroke="#fff" stroke-linecap="round" stroke-linejoin="round" stroke-width="0.75"/>
                  <path id="Path_382" data-name="Path 382" d="M96.2,190.74c-5.977,4.869-13.8,6.84-20.274,11.027a68.71,68.71,0,0,0-10.02,8.472l-6.178,5.939" transform="translate(-43.054 -174.995)" fill="none" stroke="#fff" stroke-linecap="round" stroke-linejoin="round" stroke-width="0.75"/>
                  <path id="Path_383" data-name="Path 383" d="M95.729,179.121c-4.539,6.853-9.035,13.872-11.527,21.7s-2.795,16.688.916,24.022" transform="translate(-69.471 -177.2)" fill="none" stroke="#fff" stroke-linecap="round" stroke-linejoin="round" stroke-width="0.75"/>
                  <path id="Path_384" data-name="Path 384" d="M93.337,216.563A93.007,93.007,0,0,0,83.593,235.7c-1.473,3.971-2.9,8.352-6.435,10.687" transform="translate(-60.928 -170.097)" fill="none" stroke="#fff" stroke-linecap="round" stroke-linejoin="round" stroke-width="0.75"/>
                  <path id="Path_385" data-name="Path 385" d="M92.136,230.661a79.054,79.054,0,0,0,4.02,24.4c1.047,3.15,2.295,6.242,3.094,9.465a20.623,20.623,0,0,1,.338,9.858" transform="translate(-85.454 -167.422)" fill="none" stroke="#fff" stroke-linecap="round" stroke-linejoin="round" stroke-width="0.75"/>
                </g>
                <path id="Path_386" data-name="Path 386" d="M210.13,131.178v258.99c0,9.79-7.35,18.232-17.087,19.034-.44.036-.891.063-1.354.079-14.483.519-69.894-3.92-84.106-5.087a16.568,16.568,0,0,1-9.891-4.247c-3.462-3.184-7.12-8.721-7.722-18.086V140.444s-1.19-14.9,16.656-17.884l81.395-8.938a21.561,21.561,0,0,1,16.2,4.68q.405.337.8.7A16.548,16.548,0,0,1,210.13,131.178Z" transform="translate(574.709 21.608)" fill="#1e2975"/>
                <path id="Path_387" data-name="Path 387" d="M214.8,131.695V390.145a18.918,18.918,0,0,1-17.087,18.994q-.66.054-1.354.08c-14.482.516-69.894-3.913-84.106-5.078a16.588,16.588,0,0,1-9.891-4.238c-3.461-3.178-7.119-8.7-7.722-18.048V140.941s-1.19-14.871,16.656-17.846l81.395-8.92a21.6,21.6,0,0,1,16.2,4.67q.4.337.8.7A16.5,16.5,0,0,1,214.8,131.695Z" transform="translate(564.49 21.713)" fill="#4855a9"/>
                <path id="Path_388" data-name="Path 388" d="M99.621,138.561V384.829l87.871,4.295,21.581,1.059.036-15.93.143-62.507.119-51.847.143-62.9.071-31.277.083-37.571-34.394,3.26-28.648,2.7Z" transform="translate(563.67 24.39)" fill="#d2d1fc"/>
                <path id="Path_389" data-name="Path 389" d="M139.81,126.981c.036,0,.073,0,.108,0l19.63-1.785a1.19,1.19,0,0,0-.214-2.37l-19.63,1.785a1.19,1.19,0,0,0,.106,2.375Z" transform="translate(566.31 23.379)" fill="#1e2975"/>
                <g transform="matrix(1, 0, 0, 1, 172, 0)" filter="url(#Path_390)">
                  <path id="Path_390-2" data-name="Path 390" d="M441.03,22.739c38.245,31.033,83.862,69.674,121.356,101.544s82.388,58.877,132.265,62.846c40.22,3.2,79.819-8.767,118.907-18.423,37.147-9.176,82.125-9.833,118.888.321l4.56,134.734L932.447,415.3c-52.556,36.611-95.895,95.978-150.369,129.882-58.642,36.5-132.847,34.035-201.5,26.411-46.132-5.123-93.46-11.917-139.551-9.093C418.762,563.863,437.7,20.039,441.03,22.739Z" transform="translate(-441.16 -6.13)" fill="#5446e0"/>
                </g>
                <path id="Path_391" data-name="Path 391" d="M469.795,106.448c-12.319-11.118-22.3-25.514-25.3-41.836-.961-5.244-1.1-11.008,1.732-15.528,4.212-6.725,13.454-8.32,21.3-7.142,16.17,2.426,30.079,13.73,38.607,27.683s12.248,30.337,14.01,46.6C523.919,151.016,479.7,115.389,469.795,106.448Z" transform="translate(-156.597 7.969)" fill="#5446e0"/>
                <path id="Path_392" data-name="Path 392" d="M432.153,109.517a22.82,22.82,0,0,0-3.109-6.153,7.716,7.716,0,0,0-5.878-3.18,8.73,8.73,0,0,0-5.656,2.718,19.358,19.358,0,0,0-4.6,20.131,21.973,21.973,0,0,0,15.854,13.653,24.348,24.348,0,0,0,10.272.032c3.867-.841,2.362-3.132,1.229-6.083Q436.207,120.076,432.153,109.517Z" transform="translate(-39.615 19.085)" fill="#5446e0"/>
              </g>
            </g>
            <path id="Path_393" data-name="Path 393" d="M598.644,146.215H497.654a3.951,3.951,0,0,1,2.1-2.209c1.868-.764,3.976-.327,5.976-.061s4.27.265,5.741-1.115c1.576-1.479,1.72-4.09,3.4-5.455,3.251-2.647,8.264,1.745,12.161.2,3.846-1.526,4.213-7.85,8.228-8.853,3.69-.921,7.035,3.624,10.768,2.9,2.074-.4,3.509-2.366,4.157-4.377s.72-4.16,1.249-6.205a14.245,14.245,0,0,1,27.689.441c.547,2.432.448,4.971.958,7.411s1.833,4.944,4.164,5.828c3.162,1.2,6.606-1.01,9.984-.846a7.073,7.073,0,0,1,4.416,12.347Z" transform="translate(-300.803 20.932)" fill="#fff"/>
            <path id="Path_394" data-name="Path 394" d="M489.067,239.905H397.623a3.582,3.582,0,0,1,1.9-2c1.691-.691,3.6-.3,5.411-.055s3.867.24,5.2-1.009c1.428-1.338,1.557-3.7,3.075-4.94,2.943-2.4,7.482,1.58,11.011.18,3.482-1.382,3.815-7.108,7.45-8.016,3.342-.833,6.37,3.281,9.751,2.622,1.877-.365,3.176-2.143,3.763-3.963s.652-3.768,1.131-5.619a12.9,12.9,0,0,1,25.072.4c.495,2.2.406,4.5.866,6.71s1.661,4.477,3.771,5.278c2.862,1.086,5.982-.915,9.041-.766a6.4,6.4,0,0,1,4,11.18Z" transform="translate(-71.993 39.349)" fill="#fff"/>
            <path id="Path_396" data-name="Path 396" d="M222.225,164.532h42.792a1.876,1.876,0,0,0,1.146-3.368,3.475,3.475,0,0,0-2.513-.673c-.973.138-1.965.656-2.891.321-1.6-.578-1.541-3.067-2.965-3.993s-3.439.258-4.57,1.253a4.712,4.712,0,0,1-2.118,1.117c-4.116.866-4.309-5.6-7.757-6.195-2.462-.424-4.246,2.534-6.708,2.956-2.321.4-4.365-1.55-5.649-3.524-1.54-2.369-2.831-5.21-5.916-5.746a5.91,5.91,0,0,0-4.777,1.381c-2.7,2.266-3.211,6.012-2.447,9.283a22.362,22.362,0,0,0,2.753,6.267A1.885,1.885,0,0,0,222.225,164.532Z" transform="translate(366.557 27.808)" fill="#fff"/>
            <path id="Path_397" data-name="Path 397" d="M417.1,326.18c3.364-5.051,7.446-9.595,10.825-14.637,6.486-9.679,10.2-20.894,14.774-31.608,4.093-9.581,11.062-20.224,21.479-20.042,9.127.158,15.849,8.994,18.3,17.788a44.657,44.657,0,0,1-6.8,37.668c-6.652,9.144-16.486,15.328-25.537,22.1s-17.916,14.947-21.073,25.806c-1.636,5.626-1.669,11.784-4.449,16.941-2.313,4.292-9.125,8.844-13.491,4.991-3.313-2.924-3.814-14.1-4.182-18.164A63.893,63.893,0,0,1,417.1,326.18Z" transform="translate(-75.598 49.3)" fill="#4855a9"/>
            <path id="Path_398" data-name="Path 398" d="M446.355,272.809l-.026.046a3.07,3.07,0,0,1-5.722-1.02,8.722,8.722,0,0,1,.165-3.349c.678-2.7,4.916-8.56,8.353-6.5C452.674,264.117,447.572,270.576,446.355,272.809Z" transform="translate(-82.173 49.616)" fill="#4855a9"/>
            <path id="Path_399" data-name="Path 399" d="M532,351.557c-1.988-9.432-7.2-18.368-15.163-23.8-4.454-3.037-9.713-4.986-13.492-8.831-7.324-7.451-6.862-19.253-9.424-29.382-.556-2.2-1.427-4.551-3.4-5.668a7.976,7.976,0,0,0-5.206-.508,26.662,26.662,0,0,0-14.856,44.9c7.17,7.38,17.957,10.053,25.9,16.6,5.521,4.548,9.433,10.8,12.255,17.371,2.2,5.126,3.871,10.636,7.478,14.894,4.25,5.016,12.517,8.311,14.851.723A54.568,54.568,0,0,0,532,351.557Z" transform="translate(-191.663 53.716)" fill="#4855a9"/>
            <circle id="Ellipse_30" data-name="Ellipse 30" cx="2.379" cy="2.379" r="2.379" transform="translate(354.232 324.724)" fill="#4855a9"/>
            <path id="Path_400" data-name="Path 400" d="M419.619,384.822c8.236-6.8,10.542-18.384,11.174-29.048s.228-21.826,4.921-31.424c3.636-7.436,9.967-13.13,15.99-18.809,6.527-6.154,12.973-12.668,16.976-20.7,3.507-7.031,4.9-15.488,2.467-22.858" transform="translate(-79.318 49.697)" fill="none" stroke="#fff" stroke-miterlimit="10" stroke-width="0.75"/>
            <path id="Path_401" data-name="Path 401" d="M438.915,273.615a35.989,35.989,0,0,1-29.048,26.176" transform="translate(-34.264 51.903)" fill="none" stroke="#fff" stroke-miterlimit="10" stroke-width="0.75"/>
            <path id="Path_402" data-name="Path 402" d="M459.389,301.975c-5.651,6.07-13.737,9.2-21.689,11.553s-16.2,4.173-23.357,8.359" transform="translate(-60.062 57.283)" fill="none" stroke="#fff" stroke-miterlimit="10" stroke-width="0.75"/>
            <path id="Path_403" data-name="Path 403" d="M448.076,269.383c1.975,7.839-1.341,16-5.237,23.079s-8.55,14.09-9.541,22.112" transform="translate(-71.889 51.1)" fill="none" stroke="#fff" stroke-miterlimit="10" stroke-width="0.75"/>
            <path id="Path_404" data-name="Path 404" d="M455.966,315.12c-2.024,5.1-1.609,10.848-.363,16.187s3.275,10.474,4.445,15.83" transform="translate(-108.568 59.776)" fill="none" stroke="#fff" stroke-miterlimit="10" stroke-width="0.75"/>
            <path id="Path_405" data-name="Path 405" d="M465.145,372.835c7.881-13.589,6.484-31.965-3.359-44.207" transform="translate(-127.35 62.339)" fill="none" stroke="#fff" stroke-miterlimit="10" stroke-width="0.75"/>
            <path id="Path_406" data-name="Path 406" d="M508.3,381.579c3.869-8.512,1.917-18.739-2.648-26.9s-11.447-14.725-18.018-21.378-13.068-13.734-16.545-22.414-3.375-19.371,2.536-26.615" transform="translate(-175.793 53.925)" fill="none" stroke="#fff" stroke-miterlimit="10" stroke-width="0.75"/>
            <path id="Path_407" data-name="Path 407" d="M493.562,299.486c5.489,3.5,9.189,9.127,13.454,14.052s9.832,9.5,16.344,9.584" transform="translate(-218.282 56.811)" fill="none" stroke="#fff" stroke-miterlimit="10" stroke-width="0.75"/>
            <path id="Path_408" data-name="Path 408" d="M472.116,326.112c4.8.387,9.119,3.117,12.711,6.33s6.675,6.97,10.362,10.073,8.207,5.582,13.025,5.531" transform="translate(-177.621 61.862)" fill="none" stroke="#fff" stroke-miterlimit="10" stroke-width="0.75"/>
            <path id="Path_409" data-name="Path 409" d="M467.192,324.757a107.3,107.3,0,0,1,7.731,21.576,21.564,21.564,0,0,1,.811,6.164,8.382,8.382,0,0,1-2.318,5.634l-.054-.531" transform="translate(-139.299 61.605)" fill="none" stroke="#fff" stroke-miterlimit="10" stroke-width="0.75"/>
            <path id="Path_421" data-name="Path 421" d="M271.99,350.072a3.091,3.091,0,0,1,4.1.326l3.646,3.648h61.454l3.648-3.648a3.091,3.091,0,0,1,4.1-.326,2.975,2.975,0,0,1,.227,4.413l-4.78,4.78a2.484,2.484,0,0,1-1.76.729H278.3a2.488,2.488,0,0,1-1.76-.729l-4.78-4.78A2.975,2.975,0,0,1,271.99,350.072Z" transform="translate(219.958 66.287)" fill="#fff"/>
            <g id="Group_241" data-name="Group 241" transform="translate(547.968 426.38)">
              <circle id="Ellipse_32" data-name="Ellipse 32" cx="4.833" cy="4.833" r="4.833" fill="#a4a3fc"/>
              <path id="Path_422" data-name="Path 422" d="M284.006,362.71a1.586,1.586,0,1,0,1.586-1.587A1.586,1.586,0,0,0,284.006,362.71Z" transform="translate(-280.759 -357.877)" fill="#45314a"/>
            </g>
            <g id="Group_242" data-name="Group 242" transform="translate(503.206 426.38)">
              <circle id="Ellipse_33" data-name="Ellipse 33" cx="4.833" cy="4.833" r="4.833" fill="#a4a3fc"/>
              <path id="Path_423" data-name="Path 423" d="M321.631,362.71a1.586,1.586,0,1,0,1.586-1.587A1.586,1.586,0,0,0,321.631,362.71Z" transform="translate(-318.384 -357.877)" fill="#45314a"/>
            </g>
            <g id="Group_244" data-name="Group 244" transform="translate(521.892 407.253)">
              <g id="Group_243" data-name="Group 243" transform="translate(13.515)">
                <path id="Path_424" data-name="Path 424" d="M301.765,342.317l-.786,6.022-2.666,3.34-7.645-2.565s-.089-2.353-.225-6.334C294.239,342.668,298.031,342.44,301.765,342.317Z" transform="translate(-290.443 -342.317)" fill="#fa9778"/>
              </g>
              <path id="Path_425" data-name="Path 425" d="M289.851,355.053a2.163,2.163,0,0,1,.234-2.523,3.972,3.972,0,0,1,2.359-1.244c.89-.171,1.8-.168,2.707-.259a12.961,12.961,0,0,0,6.975-3.073,3.525,3.525,0,0,1-.347-2.779,2.64,2.64,0,0,1,1.911-1.3,5.247,5.247,0,0,1,4.336,1.027,5.69,5.69,0,0,1,2.08,4.16,1.771,1.771,0,0,0,1.434-.715,4.277,4.277,0,0,1,1.216-1.12,2.51,2.51,0,0,1,1.889.07,1.553,1.553,0,0,1,.6.345.629.629,0,0,1,.167.639,8.911,8.911,0,0,0-.134,4.835,3.317,3.317,0,0,1,.045,1.917Z" transform="translate(-289.544 -342.043)" fill="#45314a"/>
            </g>
            <g id="Group_246" data-name="Group 246" transform="translate(606.399 383.283)">
              <g id="Group_245" data-name="Group 245">
                <path id="Path_426" data-name="Path 426" d="M236.325,322.169c2.448,1.589,4.043,2.628,4.48,2.914a.885.885,0,0,0,.131.078l1.38,6.173-6.241,3.5-.314.625-6.166-3.053A66.379,66.379,0,0,0,236.325,322.169Z" transform="translate(-229.595 -322.169)" fill="#fa9778"/>
              </g>
              <path id="Path_427" data-name="Path 427" d="M229.806,349.612a1.1,1.1,0,0,1-1.52.487,2.409,2.409,0,0,1-.993-1.095,3.967,3.967,0,0,1-.067-2.665c.243-.874.652-1.691.971-2.54a12.958,12.958,0,0,0,.349-7.615,3.528,3.528,0,0,1-2.645-.923,2.637,2.637,0,0,1-.315-2.29,5.244,5.244,0,0,1,2.847-3.428,5.691,5.691,0,0,1,4.652-.014,1.77,1.77,0,0,0,0-1.6,4.242,4.242,0,0,1-.462-1.587,2.5,2.5,0,0,1,.9-1.661,1.525,1.525,0,0,1,.576-.383.631.631,0,0,1,.646.134,8.912,8.912,0,0,0,4.271,2.271l.438.119a1.247,1.247,0,0,1,.772,1.754Z" transform="translate(-222.72 -321.772)" fill="#45314a"/>
            </g>
            <g id="Group_249" data-name="Group 249" transform="translate(534.131 291.547)">
              <path id="Path_428" data-name="Path 428" d="M276.12,316.443c.19,24.2-.419,45.6-.419,45.6l13.375,3.47,9.518-91.7,7.245-24.793-1.8-2.986-.583-.976-23.092,5.568-1.654.393-.345.083s-1.785,15.466-2.272,20.332C275.858,273.733,275.953,294.814,276.12,316.443Z" transform="translate(-275.701 -245.061)" fill="#ffa8b9"/>
              <g id="Group_248" data-name="Group 248" transform="translate(3.123)">
                <path id="Path_429" data-name="Path 429" d="M242.357,245.061s13.384,10.607,15.664,25.281-3.965,40.054-3.965,40.054l42.234,27.759-9.512,10.41s-47.5-21.513-52.65-29.148,2.677-60.576,2.677-60.576Z" transform="translate(-217.725 -245.061)" fill="#ffa8b9"/>
                <g id="Group_247" data-name="Group 247" transform="translate(0 6.246)">
                  <path id="Path_430" data-name="Path 430" d="M290.356,314.835s-1.487-27.661,1.487-40.9l-4.61-2.677-2.826-20.076" transform="translate(-275.188 -250.145)" fill="none" stroke="#45314a" stroke-miterlimit="10" stroke-width="0.75"/>
                  <path id="Path_431" data-name="Path 431" d="M301.325,250.311s-9.22,4.61-18.292,2.677" transform="translate(-283.033 -250.311)" fill="none" stroke="#45314a" stroke-miterlimit="10" stroke-width="0.75"/>
                  <line id="Line_14" data-name="Line 14" x1="5.056" y1="23.348" transform="translate(11.6 0.446)" fill="none" stroke="#45314a" stroke-miterlimit="10" stroke-width="0.75"/>
                </g>
              </g>
            </g>
            <g id="Group_253" data-name="Group 253" transform="translate(529.169 238.753)">
              <g id="Group_250" data-name="Group 250" transform="translate(9.418)">
                <path id="Path_432" data-name="Path 432" d="M299.659,218.039c-2.444-4.981-1.525-15.873-1.4-17.219.007-.046.008-.088.015-.136l-13.164,8.855a3.669,3.669,0,0,1,.539,1.485v0a16.858,16.858,0,0,1,.039,4.241,36.912,36.912,0,0,1-.9,4.8l7.039,3.074Z" transform="translate(-284.788 -200.685)" fill="#fa9778"/>
                <path id="Path_433" data-name="Path 433" d="M287.529,214.42c7.57.346,10.649-8.907,10.761-9.252a8.865,8.865,0,0,1-5.042,4.265,14.716,14.716,0,0,1-5.711.752c-.017,0-.032,0-.048-.006A16.857,16.857,0,0,1,287.529,214.42Z" transform="translate(-286.633 -199.835)" fill="#fa7c55"/>
              </g>
              <g id="Group_252" data-name="Group 252" transform="translate(0 16.306)">
                <path id="Path_434" data-name="Path 434" d="M274.022,234.021a7.906,7.906,0,0,0,.25,2.141,22.382,22.382,0,0,0,3.212,6.781l.155.488,3.748,11.528.607,1.88.155.488a9.764,9.764,0,0,0,1.773.464c3.4.619,11.588.964,23.4-5.937.167-.083.333-.19.5-.286,0,0-.071-.583-.143-1.594a44.211,44.211,0,0,1,1.214-13.4,29.859,29.859,0,0,1,1.213-3.748c3.569-8.923-3.153-16.763-6.734-17.405s-5.258-1.035-5.258-1.035-8.53,5.758-14.871,2.082a35.088,35.088,0,0,1-4.64,3.843,7.517,7.517,0,0,0-3.2,4.735A60.774,60.774,0,0,0,274.022,234.021Z" transform="translate(-274.019 -214.391)" fill="#ffd592"/>
                <path id="Path_435" data-name="Path 435" d="M275.891,239.894l3.748,11.528c5.687-.262,17.6-2.356,26.292-4.985a44.209,44.209,0,0,1,1.213-13.4C301.957,235.028,286.753,240.417,275.891,239.894Z" transform="translate(-272.271 -210.853)" fill="#a4a3fc"/>
                <g id="Group_251" data-name="Group 251" transform="translate(7.452 3.886)">
                  <path id="Path_436" data-name="Path 436" d="M298.765,217.657a10.669,10.669,0,0,1-11.515.4" transform="translate(-284.857 -217.657)" fill="none" stroke="#45314a" stroke-miterlimit="10" stroke-width="0.75"/>
                  <path id="Path_437" data-name="Path 437" d="M300.946,246.01a38.719,38.719,0,0,1-12.581-12.235" transform="translate(-288.365 -214.599)" fill="none" stroke="#45314a" stroke-miterlimit="10" stroke-width="0.75"/>
                  <path id="Path_438" data-name="Path 438" d="M298.2,243.486a24.392,24.392,0,0,1-4.164-4.759" transform="translate(-292.359 -213.66)" fill="none" stroke="#45314a" stroke-miterlimit="10" stroke-width="0.75"/>
                </g>
              </g>
            </g>
            <g id="Group_257" data-name="Group 257" transform="translate(549.091 254.967)">
              <g id="Group_254" data-name="Group 254" transform="translate(3.888)">
                <path id="Path_439" data-name="Path 439" d="M234,247.858a82.705,82.705,0,0,1,8.378,15.741l-.023.014c1.993,1.129,6.679,3.915,8.026,5.862a.213.213,0,0,1-.192.343c-.41-.013-1.259-.264-2.921-1.449,0,0,2.8,3.3,2.739,4.083s-4.223-2.915-4.223-2.915,2.755,4.05,2.422,4.683-4-3.5-4-3.5,2.6,4.336,2.215,4.492c-.954.387-4.768-5.6-5.355-5.136-.52.414-.221,2.141.083,3a.3.3,0,0,1-.221.4c-.372.076-.967.029-1.347-.848a16.65,16.65,0,0,1-1.482-6.37c-.107-.1-2.886-2.767-7.08-6.757C232.211,255.705,233.178,251.805,234,247.858Z" transform="translate(-185.978 -207.95)" fill="#fa9778"/>
                <path id="Path_440" data-name="Path 440" d="M237.4,214.409s11.1-2.181,27.958,14.276,28.949,26.967,28.949,26.967-3.965,13.284-9.518,16.656c0,0-15.07-16.061-18.242-18.243s-18.044-17.448-18.044-17.448S235.023,221.746,237.4,214.409Z" transform="translate(-237.121 -214.314)" fill="#fff"/>
              </g>
              <g id="Group_256" data-name="Group 256" transform="translate(0 0.096)">
                <path id="Path_441" data-name="Path 441" d="M280.868,235.412s-2.082,13.682-.892,18.44,20.225,21.415,11.6,62.162a99.469,99.469,0,0,1-21.415,1.487s0-57.7-4.164-62.459-9.716-30.14-1.586-40.649C264.411,214.394,280.571,222.326,280.868,235.412Z" transform="translate(-260.242 -214.394)" fill="#fff"/>
                <g id="Group_255" data-name="Group 255" transform="translate(13.952 22.955)">
                  <path id="Path_442" data-name="Path 442" d="M277.647,237.76l-5.746-4.071" transform="translate(-271.901 -233.689)" fill="none" stroke="#45314a" stroke-miterlimit="10" stroke-width="0.75"/>
                  <path id="Path_443" data-name="Path 443" d="M262.834,236.16c-1.909,5.38-.895,11.4,1.18,16.721s5.153,10.185,7.533,15.375a64.252,64.252,0,0,1,3.872,42.111" transform="translate(-259.581 -233.22)" fill="none" stroke="#45314a" stroke-miterlimit="10" stroke-width="0.75"/>
                </g>
              </g>
            </g>
            <g id="Group_260" data-name="Group 260" transform="translate(475.792 257.145)">
              <g id="Group_258" data-name="Group 258" transform="translate(0 4.812)">
                <path id="Path_444" data-name="Path 444" d="M337.631,266.928c-.413-.521-2.141-.226-3,.077a.3.3,0,0,1-.4-.223c-.075-.372-.026-.967.852-1.344a16.647,16.647,0,0,1,6.325-1.467c1.494-1.556,4.228-4.408,7.627-7.971q2.229,4.181,4.371,8.409a78.7,78.7,0,0,1-9.932,4.877c-1.342,2.265-3.61,5.819-5.267,6.961a.214.214,0,0,1-.343-.193c.014-.412.268-1.259,1.456-2.918,0,0-3.31,2.8-4.089,2.73s2.923-4.218,2.923-4.218-4.055,2.747-4.686,2.413,3.508-4,3.508-4-4.341,2.59-4.5,2.206C332.1,271.317,338.1,267.516,337.631,266.928Z" transform="translate(-332.467 -213.395)" fill="#fa9778"/>
                <path id="Path_445" data-name="Path 445" d="M344.009,223.16a11.275,11.275,0,0,1,3.53-2.971,6.576,6.576,0,0,0-.194.795,82.041,82.041,0,0,0-.738,23.366C336.7,258.4,311.59,275.06,311.59,275.06c-3.272-2.379-7.436-8.179-7.436-8.179C309.062,262.271,341.332,226.431,344.009,223.16Z" transform="translate(-292.913 -220.189)" fill="#fff"/>
              </g>
              <g id="Group_259" data-name="Group 259" transform="translate(40.88)">
                <path id="Path_446" data-name="Path 446" d="M297.523,318.124l5.971-24.742c3.035-23.679,4.177-53.543,4.177-53.543l.991-1.569v-4.182s-10.31-8.328,10.51-17.944a29.954,29.954,0,0,0-6.147,20.126,72.931,72.931,0,0,0,.788,7.559l4.114,12.678s-.564,8.224-.738,9.7c-.794,6.742-1.785,55.917-1.785,55.917s-10.216,0-15.938-1.042A2.432,2.432,0,0,1,297.523,318.124Z" transform="translate(-297.454 -216.144)" fill="#fff"/>
                <path id="Path_447" data-name="Path 447" d="M306.125,246.216a64.639,64.639,0,0,1,1.078-15.9" transform="translate(-295.681 -213.456)" fill="none" stroke="#45314a" stroke-miterlimit="10" stroke-width="0.75"/>
              </g>
            </g>
            <g id="Group_272" data-name="Group 272" transform="translate(522.421 217.763)">
              <g id="Group_271" data-name="Group 271" transform="translate(8.609 2.274)">
                <path id="Path_448" data-name="Path 448" d="M284,190.031c1.428-4.771,9.767-7.257,16.1-2.582,2.945,2.165,3.867,6.452,4.018,10.419a2.021,2.021,0,0,1,.346-.174,2.47,2.47,0,0,1,2.914,1.517,3.273,3.273,0,0,1-.2,2.748,4.111,4.111,0,0,1-1.741,1.707,5.258,5.258,0,0,1-1.593.287,11.974,11.974,0,0,1-3.406,7.028,10.839,10.839,0,0,1-8.994,3.058c-2.605-.321-6.531-1.666-7.685-4.247a6.957,6.957,0,0,1-.452-2.153c-.012-.167-.036-.345-.048-.512-.143-1.642-.274-3.355-.345-5.1A37.05,37.05,0,0,1,284,190.031Z" transform="translate(-282.842 -184.953)" fill="#fa9778"/>
                <g id="Group_270" data-name="Group 270" transform="translate(0.061 7.857)">
                  <g id="Group_261" data-name="Group 261" transform="translate(0 8.037)">
                    <path id="Path_449" data-name="Path 449" d="M300.68,199.321c.071,1.749.2,3.462.345,5.1a2.226,2.226,0,0,0,.69.036,2.638,2.638,0,1,0-.428-5.258A2.5,2.5,0,0,0,300.68,199.321Z" transform="translate(-300.68 -198.146)" fill="#fa7c55"/>
                    <path id="Path_450" data-name="Path 450" d="M294.948,200.741a2.638,2.638,0,1,1-2.84-2.42A2.638,2.638,0,0,1,294.948,200.741Z" transform="translate(-278.41 -198.313)" fill="#fa7c55"/>
                  </g>
                  <g id="Group_265" data-name="Group 265" transform="translate(1.939 3.538)">
                    <g id="Group_264" data-name="Group 264">
                      <g id="Group_262" data-name="Group 262" transform="translate(0 0.762)">
                        <path id="Path_451" data-name="Path 451" d="M301.388,197.091c.068.858-.215,1.581-.635,1.616s-.815-.635-.884-1.494.215-1.582.635-1.616S301.319,196.232,301.388,197.091Z" transform="translate(-298.9 -195.091)" fill="#45314a"/>
                        <path id="Path_452" data-name="Path 452" d="M300.5,195.31a2.241,2.241,0,0,0,.567.622,1.811,1.811,0,0,0,.828.347l.013,0a.282.282,0,0,0,.082-.558.228.228,0,0,0-.075,0,1.649,1.649,0,0,1-1.268-.52l-.006-.006a.091.091,0,0,0-.142.113Z" transform="translate(-300.491 -195.171)" fill="#45314a"/>
                      </g>
                      <g id="Group_263" data-name="Group 263" transform="translate(7.536)">
                        <path id="Path_453" data-name="Path 453" d="M294.341,196.77c.069.859.464,1.528.884,1.494s.7-.757.634-1.616-.464-1.528-.884-1.494S294.272,195.911,294.341,196.77Z" transform="translate(-294.33 -194.412)" fill="#45314a"/>
                        <path id="Path_454" data-name="Path 454" d="M295.246,194.575a1.646,1.646,0,0,1-1.169.714.282.282,0,0,0,.023.564.289.289,0,0,0,.073-.013l.014,0a1.823,1.823,0,0,0,.761-.475,2.26,2.26,0,0,0,.46-.705.091.091,0,0,0-.049-.119.092.092,0,0,0-.108.031Z" transform="translate(-293.252 -194.531)" fill="#45314a"/>
                      </g>
                    </g>
                  </g>
                  <g id="Group_267" data-name="Group 267" transform="translate(4.482 10.573)">
                    <g id="Group_266" data-name="Group 266">
                      <path id="Path_455" data-name="Path 455" d="M295.028,200.9a3.731,3.731,0,0,0,1.249,1.21,2.907,2.907,0,0,0,1.744.428,2.957,2.957,0,0,0,1.647-.72,5.562,5.562,0,0,0,.608-.635c.161-.245.316-.489.454-.74-.221.19-.42.39-.621.585-.227.164-.427.359-.659.5a3.145,3.145,0,0,1-1.467.547,3.078,3.078,0,0,1-1.541-.287A6.591,6.591,0,0,1,295.028,200.9Z" transform="translate(-295.028 -200.444)" fill="#45314a"/>
                      <path id="Path_456" data-name="Path 456" d="M296.567,203.027a1.251,1.251,0,0,0,.821.207,1.307,1.307,0,0,0,.778-.335,4.151,4.151,0,0,1-.794.155A3.479,3.479,0,0,1,296.567,203.027Z" transform="translate(-294.295 -199.978)" fill="#45314a"/>
                    </g>
                  </g>
                  <g id="Group_269" data-name="Group 269" transform="translate(0.413)">
                    <g id="Group_268" data-name="Group 268">
                      <path id="Path_457" data-name="Path 457" d="M292.871,192.11a1.816,1.816,0,0,1,1.142-.531,3.648,3.648,0,0,1,1.267.077,3.063,3.063,0,0,1,1.154.545,3.224,3.224,0,0,1,.832.9.365.365,0,0,1-.528.49l-.033-.026a4.5,4.5,0,0,0-.8-.535,2.643,2.643,0,0,0-.855-.274,3.227,3.227,0,0,0-.9-.015,3.455,3.455,0,0,1-.964.021l-.1-.015a.38.38,0,0,1-.315-.438A.368.368,0,0,1,292.871,192.11Z" transform="translate(-284.862 -191.557)" fill="#45314a"/>
                      <path id="Path_458" data-name="Path 458" d="M303.784,192.332a1.814,1.814,0,0,0-1.211-.341,3.669,3.669,0,0,0-1.24.278,3.071,3.071,0,0,0-1.053.721,3.226,3.226,0,0,0-.676,1.026.365.365,0,0,0,.6.4l.029-.031a4.452,4.452,0,0,1,.7-.656,2.639,2.639,0,0,1,.8-.407,3.212,3.212,0,0,1,.89-.158,3.461,3.461,0,0,0,.955-.133l.094-.031a.382.382,0,0,0,.109-.667Z" transform="translate(-299.572 -191.475)" fill="#45314a"/>
                    </g>
                  </g>
                  <path id="Path_459" data-name="Path 459" d="M297.238,194.7c-.088.6-.14,1.186-.2,1.77s-.126,1.166-.246,1.724c-.026.14-.058.277-.1.412a1.419,1.419,0,0,0-.092.513,1.013,1.013,0,0,0,.619.878,1.229,1.229,0,0,0,1-.026,2.427,2.427,0,0,0,.747-.533c-.528.249-1.153.459-1.56.2a.606.606,0,0,1-.314-.533,1.105,1.105,0,0,1,.087-.355c.046-.15.087-.3.118-.452a8.332,8.332,0,0,0,.143-1.812A9.5,9.5,0,0,0,297.238,194.7Z" transform="translate(-290.649 -190.961)" fill="#45314a"/>
                  <path id="Path_460" data-name="Path 460" d="M286.848,197.894a1.3,1.3,0,0,0-.488-1,1.207,1.207,0,0,0-1.183-.019,2.217,2.217,0,0,0-.891.766,3.517,3.517,0,0,0-.509,1.041.26.26,0,0,0,.447.245l.015-.019a2.289,2.289,0,0,1,.821-.685.4.4,0,0,1,.369.011.963.963,0,0,1,.294.382c.161.331.272.723-.006.9a1.966,1.966,0,0,1-1.145.171,1.815,1.815,0,0,0,1.278.068.715.715,0,0,0,.4-.632,1.867,1.867,0,0,0-.128-.683,1.3,1.3,0,0,0-.419-.606.875.875,0,0,0-.809-.1,2.5,2.5,0,0,0-1.072.853l.463.226a2.789,2.789,0,0,1,1.074-1.589.979.979,0,0,1,.879-.124A1.3,1.3,0,0,1,286.848,197.894Z" transform="translate(-263.264 -190.575)" fill="#45314a"/>
                </g>
              </g>
              <path id="Path_461" data-name="Path 461" d="M273.973,215.865a9.967,9.967,0,0,1,2.046-4.794c1.023-1.428,2.213-2.736,3.129-4.235s.94-3.3,1.487-4.961c.726-2.26.5-4.687.44-7.055a11.717,11.717,0,0,1,2.291-6.847,8.29,8.29,0,0,1,3.919-3.182,19.444,19.444,0,0,1,9.779-1.63c3.319.44,7.364,1.975,8.019,5.258.476,2.391-.127,5,1.4,6.89,1.368,1.713,4.815,2.854,5.647,4.877.678,1.666.642,3.533,1.035,5.282a11.152,11.152,0,0,0,2.617,5.1c.8.892,1.8,1.749,2.046,2.927a3.5,3.5,0,0,1-1.368,3.272,8.91,8.91,0,0,1-3.379,1.535,46.608,46.608,0,0,1-8.685,1.535c-1.618-5.223-.964-13.86-.821-15.526a4.984,4.984,0,0,0,1.57-.286,4.158,4.158,0,0,0,1.749-1.7,3.275,3.275,0,0,0,.2-2.748,2.7,2.7,0,0,0-1.5-1.463,9.149,9.149,0,0,1-5.164,5.669,6.764,6.764,0,0,0,1.789-3.248,15.467,15.467,0,0,1-15.445-10.989,11.279,11.279,0,0,1,5.583-.657,21.249,21.249,0,0,1,7.712,2,14.513,14.513,0,0,1,2.941,1.946,9.312,9.312,0,0,0-3.2-5.019c-6.329-4.676-14.669-2.189-16.1,2.582a37.049,37.049,0,0,0-1.095,11.992c.071,1.749.2,3.462.345,5.1.012.167.036.345.048.512a6.956,6.956,0,0,0,.452,2.153c1.13,2.522,4.9,3.867,7.507,4.223a16.676,16.676,0,0,1,.048,4.235c-.059.547-.143,1.142-.238,1.713-3.652.214-7.293.476-10.9.595a7.383,7.383,0,0,1-3.783-.559A4.693,4.693,0,0,1,273.973,215.865Z" transform="translate(-273.956 -183.042)" fill="#45314a"/>
            </g>
            <g id="Group_276" data-name="Group 276" transform="translate(529.244 213.42)">
              <g id="Group_274" data-name="Group 274">
                <g id="Group_273" data-name="Group 273">
                  <path id="Path_462" data-name="Path 462" d="M278.3,191.246a11.882,11.882,0,0,1,6.968-10.385,16.98,16.98,0,0,1,13.711-.05,18.276,18.276,0,0,1,9.5,9.508,4.561,4.561,0,0,1,.462,1.877,1.856,1.856,0,0,1-.923,1.61c-1.315.692-3.372.861-4.422,1.856-1.376,1.305-3.893.133-5.906-.109C291.162,194.767,284.108,194.211,278.3,191.246Z" transform="translate(-277.006 -179.391)" fill="#ffd592"/>
                  <path id="Path_463" data-name="Path 463" d="M281.918,189.307a.992.992,0,0,0,.658.965,73.128,73.128,0,0,0,23.867,5.546,5.306,5.306,0,0,0,2.275-.2,2.011,2.011,0,0,0,.255-.124,1.228,1.228,0,0,0-.17-2.166,10.784,10.784,0,0,0-3.493-.962,87.252,87.252,0,0,1-18.477-4.526,6.523,6.523,0,0,0-3.1-.6A2.3,2.3,0,0,0,281.918,189.307Z" transform="translate(-281.913 -177.91)" fill="#ffd592"/>
                </g>
              </g>
              <g id="Group_275" data-name="Group 275" transform="translate(2.644 9.775)">
                <path id="Path_464" data-name="Path 464" d="M306.842,193.405l-24.608-5.8" transform="translate(-282.234 -187.608)" fill="none" stroke="#45314a" stroke-miterlimit="10" stroke-width="0.75"/>
                <path id="Path_465" data-name="Path 465" d="M281.815,187.712a6.464,6.464,0,0,1-.525,6.015" transform="translate(-256.592 -187.588)" fill="none" stroke="#45314a" stroke-miterlimit="10" stroke-width="0.75"/>
              </g>
            </g>
            <path id="Path_466" data-name="Path 466" d="M359.684,368.19q-16.284-.689-32.568-.924c-10.856-.19-21.712-.24-32.568-.264-10.856.02-21.712.071-32.568.261q-16.284.232-32.568.928,16.284.694,32.568.928c10.856.189,21.712.24,32.568.261,10.856-.024,21.712-.074,32.568-.264Q343.4,368.88,359.684,368.19Z" transform="translate(259.654 69.619)" fill="#d2d1fc"/>
            <g id="Group_302" data-name="Group 302" transform="translate(655.283 154.936)">
              <g id="Group_301" data-name="Group 301" clip-path="url(#clip-path-2)">
                <g id="Group_277" data-name="Group 277" transform="translate(27.674 266.598)">
                  <path id="Path_467" data-name="Path 467" d="M177.849,354.321l-2.438,10.045-9.55-3.008s.139-2.313.393-6.229Q172.063,354.82,177.849,354.321Z" transform="translate(-165.862 -354.321)" fill="#f7bb8b"/>
                </g>
                <path id="Path_468" data-name="Path 468" d="M190.469,368.961a86.081,86.081,0,0,1-24.506-3.041c.036-1.936,1.946-3.707,3.77-4.154a19.145,19.145,0,0,1,5.611-.024c1.876.1,3.946.036,5.394-1.188a1.286,1.286,0,0,1,.651-1.638,2.735,2.735,0,0,1,1.886-.049,8.451,8.451,0,0,1,2.977,1.426,6.3,6.3,0,0,0,2.112,1.321,3,3,0,0,0,2.257-.468c.346-.216.8-.444,1.237-.694a1.439,1.439,0,0,1,2,.6c.084.161.153.33.226.5a11.51,11.51,0,0,0-1.368,5.175A2.31,2.31,0,0,1,190.469,368.961Z" transform="translate(-154.545 -86.887)" fill="#c25b3e"/>
                <g id="Group_278" data-name="Group 278" transform="translate(116.553 227.501)">
                  <path id="Path_469" data-name="Path 469" d="M93.455,321.458c6.336,3.311,10.463,5.482,10.463,5.482L100.6,337.4l-13.529-5.086A119.606,119.606,0,0,1,93.455,321.458Z" transform="translate(-87.067 -321.458)" fill="#f7bb8b"/>
                </g>
                <path id="Path_470" data-name="Path 470" d="M93.819,328.967a86.078,86.078,0,0,1-6.74,23.757c-1.907-.331-3.367-2.489-3.531-4.36a19.1,19.1,0,0,1,.832-5.548c.389-1.838.636-3.9-.353-5.512a1.286,1.286,0,0,1-1.519-.893,2.74,2.74,0,0,1,.238-1.871,8.474,8.474,0,0,1,1.864-2.724,6.31,6.31,0,0,0,1.626-1.886,3,3,0,0,0-.118-2.3c-.161-.375-.316-.86-.5-1.329a1.439,1.439,0,0,1,.893-1.888c.173-.06.35-.1.526-.149a11.5,11.5,0,0,0,4.906,2.14A2.313,2.313,0,0,1,93.819,328.967Z" transform="translate(45.089 -93.425)" fill="#c25b3e"/>
                <path id="Path_471" data-name="Path 471" d="M140.937,263.733s3.867,12.938,4.164,21.861,4.313,26.471,4.313,26.471l43.127,23.794L189.12,348.2s-50.265-18.143-55.172-21.861-14.425-40-14.425-40L101.38,376.9l-11.6-1.338s4.015-93.392,12.938-107.222Z" transform="translate(-62.364 -104.907)" fill="#45314a"/>
                <g id="Group_279" data-name="Group 279" transform="translate(36.592 164.774)">
                  <path id="Path_472" data-name="Path 472" d="M173.409,268.733s-22.9,7.882-41.342,4.015" transform="translate(-130.134 -268.733)" fill="none" stroke="#fff" stroke-miterlimit="10" stroke-width="0.75"/>
                  <path id="Path_473" data-name="Path 473" d="M151.317,269.381l.595,12.046,3.123,3.867-.446-16.061" transform="translate(-134.661 -268.638)" fill="none" stroke="#fff" stroke-miterlimit="10" stroke-width="0.75"/>
                  <path id="Path_474" data-name="Path 474" d="M169.344,272.733s1.041,7.584-5.949,8.625" transform="translate(-163.396 -267.974)" fill="none" stroke="#fff" stroke-miterlimit="10" stroke-width="0.75"/>
                  <path id="Path_475" data-name="Path 475" d="M130.605,269.733s-.892,8.179,5.948,9.369" transform="translate(-91.494 -268.543)" fill="none" stroke="#fff" stroke-miterlimit="10" stroke-width="0.75"/>
                  <path id="Path_476" data-name="Path 476" d="M158.226,280.975a17.1,17.1,0,0,0-4.768,2.82c-2.032.1-3.606-.083-5.638.017" transform="translate(-133.692 -266.411)" fill="none" stroke="#fff" stroke-miterlimit="10" stroke-width="0.75"/>
                  <path id="Path_477" data-name="Path 477" d="M128.28,306.69l.892-2.082c-.991.151-1.989.111-2.98.262" transform="translate(-78.907 -261.927)" fill="none" stroke="#fff" stroke-miterlimit="10" stroke-width="0.75"/>
                </g>
                <g id="Group_280" data-name="Group 280" transform="translate(47.419 90.229)">
                  <path id="Path_478" data-name="Path 478" d="M161.81,223.128c-3.034-4.645-3.451-15.568-3.5-16.918,0-.048,0-.089,0-.137l-11.984,10.4a3.67,3.67,0,0,1,.715,1.406v0a16.9,16.9,0,0,1,.557,4.206c.061,2.12-.1,3.976-.1,3.976Z" transform="translate(-146.328 -206.074)" fill="#f7bb8b"/>
                  <path id="Path_479" data-name="Path 479" d="M150.8,221.208c7.556-.581,9.482-10.141,9.551-10.5a8.869,8.869,0,0,1-4.484,4.849A14.705,14.705,0,0,1,150.291,217c-.017,0-.032,0-.048,0A16.9,16.9,0,0,1,150.8,221.208Z" transform="translate(-149.527 -205.195)" fill="#eba771"/>
                </g>
                <g id="Group_283" data-name="Group 283" transform="translate(23.658 104.482)">
                  <g id="Group_281" data-name="Group 281" transform="translate(0 5.491)">
                    <path id="Path_480" data-name="Path 480" d="M161.838,262.524q2.878,1.54,5.9,2.9c1.594-2.986,3.022-5.913,4.284-8.685,3.187-6.96,5.388-12.992,6.793-16.858,1.26-3.474,4.894-9.032,4.515-11.09-1-5.223-4.859-9.419-11.5-2.478a42.7,42.7,0,0,0-4.959,8.393c-1.19,3-3.224,7.59-5.676,12.908-.795,1.729-1.632,3.537-2.5,5.393A7.3,7.3,0,0,0,161.838,262.524Z" transform="translate(-158.007 -222.671)" fill="#dcf2f2"/>
                  </g>
                  <g id="Group_282" data-name="Group 282" transform="translate(13.38)">
                    <path id="Path_481" data-name="Path 481" d="M153.738,218.124a33.6,33.6,0,0,1,11.682,1.312,17.974,17.974,0,0,1,6.744,3.406,9.393,9.393,0,0,1,3.416,6.565,6.414,6.414,0,0,1-3.671,6.135c-2.49,3.7-2.563,8.618-2.07,13.046s1.779,8.734,2.35,13.152.353,9.149-1.938,12.97a154.867,154.867,0,0,1-19.609,3.912,51.808,51.808,0,0,1-19.866-1.1c-.817-14.47-1.443-29.023-2.259-43.493-.131-2.318-.222-4.8.991-6.777,1.268-2.066,3.663-3.1,5.908-4.016a18.768,18.768,0,0,1,6.266-1.735c1.39-.052,2.783.206,4.166.068A16.374,16.374,0,0,0,153.738,218.124Z" transform="translate(-128.443 -218.055)" fill="#fff"/>
                  </g>
                </g>
                <g id="Group_285" data-name="Group 285" transform="translate(22.347 131.859)">
                  <path id="Path_482" data-name="Path 482" d="M167.165,241.066c-3.128,3.033-6.43,6.4-7.044,10.71a11.231,11.231,0,0,0,.335,4.546,5.518,5.518,0,0,0,2.473,3.242,40.406,40.406,0,0,1,3.274,2.376c4.742,3.564,10.974,4.272,16.877,4.856a17.7,17.7,0,0,0,1.156-4.408,6.133,6.133,0,0,0-1.033-4.4,11.622,11.622,0,0,0-3.775-2.642,21.444,21.444,0,0,1-8.619-9.087C169.871,244.367,169.135,241.826,167.165,241.066Z" transform="translate(-160.021 -241.066)" fill="#dcf2f2"/>
                  <g id="Group_284" data-name="Group 284" transform="translate(7.428 3.364)">
                    <path id="Path_483" data-name="Path 483" d="M175.479,251.42a23.449,23.449,0,0,0-8.2-6.37" transform="translate(-167.281 -243.675)" fill="none" stroke="#45314a" stroke-miterlimit="10" stroke-width="0.75"/>
                    <path id="Path_484" data-name="Path 484" d="M171.251,243.894l.583,3.769" transform="translate(-168.359 -243.894)" fill="none" stroke="#45314a" stroke-miterlimit="10" stroke-width="0.75"/>
                  </g>
                </g>
                <g id="Group_287" data-name="Group 287" transform="translate(41.864 146.163)">
                  <path id="Path_485" data-name="Path 485" d="M143.467,253.564a2.04,2.04,0,0,0-1.177,1.94l.259,9c.045,1.551.137,3.24,1.077,4.4a4.015,4.015,0,0,0,2.767,1.368,11.654,11.654,0,0,0,3.1-.258,47.532,47.532,0,0,1,7.966-.9c2.067,0,4.168.243,6.176-.293a5.7,5.7,0,0,0,4.322-4.326,9.057,9.057,0,0,0-.33-3.37l-1.39-6.1a1.874,1.874,0,0,0-1.559-1.5c-3.843-.434-8.034,1.467-11.884,1.014-1.8-.211-3.5-.952-5.281-1.3A6.962,6.962,0,0,0,143.467,253.564Z" transform="translate(-142.174 -253.09)" fill="#dcf2f2"/>
                  <g id="Group_286" data-name="Group 286" transform="translate(0 0.906)">
                    <path id="Path_486" data-name="Path 486" d="M163.627,264a18.56,18.56,0,0,1,.544-10.151" transform="translate(-163.164 -253.851)" fill="none" stroke="#45314a" stroke-miterlimit="10" stroke-width="0.75"/>
                    <path id="Path_487" data-name="Path 487" d="M156,261.436a10.562,10.562,0,0,1-4.139-2.716" transform="translate(-141.557 -252.927)" fill="none" stroke="#45314a" stroke-miterlimit="10" stroke-width="0.75"/>
                    <path id="Path_488" data-name="Path 488" d="M157.256,262.165a15.287,15.287,0,0,1-3.054-3.686" transform="translate(-145.587 -252.973)" fill="none" stroke="#45314a" stroke-miterlimit="10" stroke-width="0.75"/>
                  </g>
                </g>
                <g id="Group_288" data-name="Group 288" transform="translate(19.635 105.549)">
                  <rect id="Rectangle_84" data-name="Rectangle 84" width="2.564" height="17.474" rx="0.832" transform="matrix(-0.866, 0.5, -0.5, -0.866, 10.959, 15.132)" fill="#45314a"/>
                  <path id="Path_489" data-name="Path 489" d="M133.638,230.009a1.226,1.226,0,0,1,.054-.128,2.152,2.152,0,0,1,.174-1.785c-.446-1.041.744-1.686.744-1.686-.72-1.437.124-2.082.124-2.082,2.4,2.177,3.088,2.384,3.268,2.383.017-.007.045,0,.057-.012.435-.512-.176-2.172-.634-2.964a.317.317,0,0,1-.03-.25v-.007a.3.3,0,0,1,.175-.186,1.148,1.148,0,0,1,1.481.584A16.8,16.8,0,0,1,141.7,230l.017.011c1.059.7,13.308,8.715,26.315,17.028,3.917-6.825,7.294-12.871,9.11-16.513a24.984,24.984,0,0,1,3.166-5.018,5.581,5.581,0,0,1,10.013,3.088,15.57,15.57,0,0,1-1.719,8.1c-1.85,4-4.823,10.425-9.011,17.672-1.106,1.911-2.293,3.878-3.566,5.876a6.686,6.686,0,0,1-9.444,1.884c-1.7-1.181-3.416-2.427-5.131-3.738-8.642-6.627-17.271-14.924-23.5-24.946l-1.488-.607c-.368-.134-1.165-.425-1.767-.642A1.715,1.715,0,0,1,133.638,230.009Z" transform="translate(-131.884 -218.145)" fill="#f7bb8b"/>
                </g>
                <g id="Group_294" data-name="Group 294" transform="translate(25.47 107.365)">
                  <g id="Group_289" data-name="Group 289" transform="translate(0 2.575)">
                    <path id="Path_490" data-name="Path 490" d="M179.373,232.054s-4.809-3.37-5.3-3.32-4.363,4.064-4.61,4.361,3.469,5.751,3.469,5.751S179.125,234.185,179.373,232.054Z" transform="translate(-169.447 -221.487)" fill="#e4f5f5"/>
                    <path id="Path_491" data-name="Path 491" d="M139.63,232.866a106.614,106.614,0,0,1,19.13,11.865,49.778,49.778,0,0,1,8.193-16.694c2.077-2.761,4.639-5.444,8.5-5.394a7.7,7.7,0,0,1,5.537,2.447,7.38,7.38,0,0,1,1.673,7.5,9.878,9.878,0,0,0-.425,3.568,11.769,11.769,0,0,1-1.764,6c-1.405,2.426-3.312,4.528-4.76,6.928-1.587,2.629-2.594,5.564-4.034,8.276s-3.455,5.3-6.295,6.468a11.229,11.229,0,0,1-8.835-.53,25.391,25.391,0,0,1-7.208-5.482c-1.8-1.82-2.308-4.4-4.352-5.945s-4.325-2.751-6.327-4.345a22.648,22.648,0,0,1-5.355-6.245q-.282-.478-.538-.978a.8.8,0,0,1,.111-.876c1.873-2.2,3.774-4.37,5.821-6.408A.812.812,0,0,1,139.63,232.866Z" transform="translate(-129.416 -222.642)" fill="#fff"/>
                  </g>
                  <g id="Group_293" data-name="Group 293" transform="translate(2.02)">
                    <g id="Group_290" data-name="Group 290" transform="translate(1.849 7.996)">
                      <path id="Path_492" data-name="Path 492" d="M182.188,237.729c-.675,3.341-3.862,5.46-5.956,8.149-1.783,2.29-2.8,5.067-3.991,7.713s-2.674,5.3-5.063,6.95a9.571,9.571,0,0,1-10.339.188c-3.889-2.485-6.134-6.341-9.273-9.726a68.264,68.264,0,0,0-7.3-6.152c-2.47-2.011-4.825-4.327-6.056-7.264" transform="translate(-134.213 -225.228)" fill="none" stroke="#45314a" stroke-miterlimit="10" stroke-width="0.75"/>
                      <path id="Path_493" data-name="Path 493" d="M149.874,241.2q1.91,1.419,3.82,2.839" transform="translate(-124.351 -224.543)" fill="none" stroke="#45314a" stroke-miterlimit="10" stroke-width="0.75"/>
                      <path id="Path_494" data-name="Path 494" d="M152.357,244.574a14.6,14.6,0,0,1,2.365-3.675,10.3,10.3,0,0,1,.595,3.669" transform="translate(-128.931 -224.6)" fill="none" stroke="#45314a" stroke-miterlimit="10" stroke-width="0.75"/>
                      <path id="Path_495" data-name="Path 495" d="M153.932,227.2a34.12,34.12,0,0,0-7.826,16.5" transform="translate(-120.106 -227.199)" fill="none" stroke="#45314a" stroke-miterlimit="10" stroke-width="0.75"/>
                    </g>
                    <path id="Path_496" data-name="Path 496" d="M174.212,232.477l-3.185-2.563" transform="translate(-168.186 -218.688)" fill="none" stroke="#45314a" stroke-miterlimit="10" stroke-width="0.75"/>
                    <path id="Path_497" data-name="Path 497" d="M175.281,233.832l-3.106-3.339" transform="translate(-170.621 -218.578)" fill="none" stroke="#45314a" stroke-miterlimit="10" stroke-width="0.75"/>
                    <path id="Path_498" data-name="Path 498" d="M176.623,235.562l-3.328-4.591" transform="translate(-173.295 -218.488)" fill="none" stroke="#45314a" stroke-miterlimit="10" stroke-width="0.75"/>
                    <g id="Group_292" data-name="Group 292" transform="translate(13.728)">
                      <path id="Path_499" data-name="Path 499" d="M150.356,234.37a16.254,16.254,0,0,0-17.081-13.862" transform="translate(-113.144 -220.478)" fill="none" stroke="#45314a" stroke-miterlimit="10" stroke-width="0.75"/>
                      <g id="Group_291" data-name="Group 291" transform="translate(0 1.492)">
                        <path id="Path_500" data-name="Path 500" d="M155.192,221.732a8.683,8.683,0,0,1-1.028,5.884c-.92,1.815-2.153,3.457-3.069,5.274a8.642,8.642,0,0,0-1.009,5.887" transform="translate(-137.938 -221.732)" fill="none" stroke="#45314a" stroke-miterlimit="10" stroke-width="0.5"/>
                        <path id="Path_501" data-name="Path 501" d="M165.987,222.161c-.334,1.631-1.764,2.8-3.213,3.618a17.016,17.016,0,0,0-4.2,2.666,5.825,5.825,0,0,0-1.548,4.582" transform="translate(-156.997 -221.651)" fill="none" stroke="#45314a" stroke-miterlimit="10" stroke-width="0.5"/>
                      </g>
                    </g>
                  </g>
                </g>
                <path id="Path_502" data-name="Path 502" d="M146.844,197.72c.836-4.912,8.813-8.392,15.662-4.53,3.184,1.8,4.624,5.935,5.261,9.856a2.139,2.139,0,0,1,.32-.214,2.471,2.471,0,0,1,3.078,1.15,3.268,3.268,0,0,1,.132,2.752,4.115,4.115,0,0,1-1.518,1.908,5.314,5.314,0,0,1-1.545.478,11.985,11.985,0,0,1-2.521,7.386,10.84,10.84,0,0,1-8.561,4.138c-2.623-.006-6.679-.854-8.14-3.278a6.778,6.778,0,0,1-.709-2.08C147.105,209.794,145.888,203.335,146.844,197.72Z" transform="translate(-108.841 -118.603)" fill="#f7bb8b"/>
                <g id="Group_300" data-name="Group 300" transform="translate(37.621 80.84)">
                  <g id="Group_295" data-name="Group 295" transform="translate(0.521 4.961)">
                    <path id="Path_503" data-name="Path 503" d="M157.814,204.627s-.245-2.689,3.234-2.219" transform="translate(-149.949 -202.353)" fill="none" stroke="#450d20" stroke-miterlimit="10" stroke-width="0.5"/>
                    <path id="Path_504" data-name="Path 504" d="M163.843,204.732s1.449-2.788,3.921-.012" transform="translate(-163.843 -202.137)" fill="none" stroke="#450d20" stroke-miterlimit="10" stroke-width="0.5"/>
                  </g>
                  <g id="Group_297" data-name="Group 297" transform="translate(5.059 10.499)">
                    <g id="Group_296" data-name="Group 296">
                      <path id="Path_505" data-name="Path 505" d="M158.615,208.156A3.714,3.714,0,0,0,160,209.2a2.912,2.912,0,0,0,1.785.212,2.958,2.958,0,0,0,1.545-.915,5.458,5.458,0,0,0,.526-.705c.13-.262.255-.523.36-.789-.2.215-.369.439-.545.656-.206.192-.38.41-.592.578a3.146,3.146,0,0,1-1.39.722,3.071,3.071,0,0,1-1.564-.1A6.536,6.536,0,0,1,158.615,208.156Z" transform="translate(-158.615 -207.007)" fill="#45314a"/>
                      <path id="Path_506" data-name="Path 506" d="M159.842,209.954a1.257,1.257,0,0,0,.841.1,1.314,1.314,0,0,0,.732-.427,4.153,4.153,0,0,1-.769.249A3.477,3.477,0,0,1,159.842,209.954Z" transform="translate(-157.271 -206.509)" fill="#45314a"/>
                    </g>
                  </g>
                  <g id="Group_299" data-name="Group 299">
                    <g id="Group_298" data-name="Group 298">
                      <path id="Path_507" data-name="Path 507" d="M157.347,198.95a1.8,1.8,0,0,1,1.068-.665,3.653,3.653,0,0,1,1.268-.078,3.087,3.087,0,0,1,1.211.4,3.217,3.217,0,0,1,.935.8.364.364,0,0,1-.464.55l-.036-.021a4.511,4.511,0,0,0-.858-.434,2.636,2.636,0,0,0-.882-.167,3.221,3.221,0,0,0-.9.1,3.485,3.485,0,0,1-.954.139l-.1,0a.381.381,0,0,1-.368-.4A.387.387,0,0,1,157.347,198.95Z" transform="translate(-149.657 -198.182)" fill="#45314a"/>
                      <path id="Path_508" data-name="Path 508" d="M168.048,199.507a1.811,1.811,0,0,0-1.244-.19,3.657,3.657,0,0,0-1.2.427,3.078,3.078,0,0,0-.957.845,3.2,3.2,0,0,0-.546,1.1.365.365,0,0,0,.644.324l.024-.035a4.525,4.525,0,0,1,.617-.736,2.638,2.638,0,0,1,.746-.5,3.2,3.2,0,0,1,.864-.265,3.455,3.455,0,0,0,.932-.249l.089-.042a.382.382,0,0,0,.027-.677Z" transform="translate(-164.088 -197.974)" fill="#45314a"/>
                    </g>
                  </g>
                  <path id="Path_509" data-name="Path 509" d="M161.642,201.782c-.013.6.007,1.194.017,1.783s.017,1.172-.034,1.741c-.01.142-.024.282-.045.42a1.42,1.42,0,0,0-.029.52,1.013,1.013,0,0,0,.721.8,1.233,1.233,0,0,0,.985-.148,2.419,2.419,0,0,0,.677-.62c-.495.311-1.089.6-1.524.389a.6.6,0,0,1-.376-.49,1.144,1.144,0,0,1,.042-.363c.029-.155.05-.308.063-.463a8.315,8.315,0,0,0-.08-1.815A9.531,9.531,0,0,0,161.642,201.782Z" transform="translate(-156.745 -197.5)" fill="#45314a"/>
                  <path id="Path_510" data-name="Path 510" d="M150.384,202.887a1.3,1.3,0,0,0-.606-.93,1.209,1.209,0,0,0-1.175.126,2.22,2.22,0,0,0-.791.87,3.535,3.535,0,0,0-.378,1.095.26.26,0,0,0,.473.188l.014-.02a2.283,2.283,0,0,1,.73-.78.4.4,0,0,1,.368-.035.973.973,0,0,1,.338.344c.2.308.358.684.1.9a1.961,1.961,0,0,1-1.116.309,1.821,1.821,0,0,0,1.278-.088.714.714,0,0,0,.318-.676,1.838,1.838,0,0,0-.211-.661,1.307,1.307,0,0,0-.49-.551.877.877,0,0,0-.815,0,2.522,2.522,0,0,0-.96.978l.488.168a2.791,2.791,0,0,1,.872-1.708.98.98,0,0,1,.858-.231A1.306,1.306,0,0,1,150.384,202.887Z" transform="translate(-126.413 -197.486)" fill="#45314a"/>
                </g>
                <path id="Path_511" data-name="Path 511" d="M147.159,205.317c.416-3.212-.986-6.531-.167-9.672a7.109,7.109,0,0,1,3.356-4.319,6.748,6.748,0,0,1,5.318-.444,7.679,7.679,0,0,1,8.913-1.344c2.434,1.335,3.913,3.88,5.91,5.807a19.982,19.982,0,0,1,3.3,3.341,4.845,4.845,0,0,1,.639,1.637c.014,0,.026.011.018.021.035.208.042.419.065.627,0,.029.008.056.008.083a14.759,14.759,0,0,1-3.631,11.389c-.1-1.321-.143-2.32-.167-2.784a5.194,5.194,0,0,0,1.535-.476,4.059,4.059,0,0,0,1.524-1.9,3.291,3.291,0,0,0-.132-2.76l-.01-.017a1.977,1.977,0,0,0-2.743-.606,8.047,8.047,0,0,0-1.808,1.6c-1.18,1.385-2.156,3.029-3.733,3.937-.763.439-1.921.581-2.366-.18a2.023,2.023,0,0,1-.176-1.079l.111-5.354c.04-1.959-.011-4.157-1.407-5.531a4.18,4.18,0,0,0-3.839-.98,5.7,5.7,0,0,0-3.291,2.347s-1.892-1.582-3.676-.616c-1.547.838-2.125,4.636-1.074,11.874.189,1.179.406,2.345.636,3.482l-.035.107a1.9,1.9,0,0,1-2.559.845,3.176,3.176,0,0,1-1.6-2.415C145.707,209.707,146.875,207.542,147.159,205.317Z" transform="translate(-111.327 -119.146)" fill="#c25b3e"/>
              </g>
            </g>
            <path id="Path_513" data-name="Path 513" d="M216.434,368.19c-6.2-.493-12.393-.75-18.589-.924-6.2-.19-12.393-.24-18.589-.264-6.2.02-12.393.071-18.589.261-6.2.174-12.393.433-18.589.928,6.2.495,12.392.754,18.589.928,6.2.189,12.392.24,18.589.261,6.2-.024,12.392-.074,18.589-.264C204.041,368.939,210.237,368.682,216.434,368.19Z" transform="translate(506.806 69.619)" fill="#d2d1fc"/>
            <g id="Group_303" data-name="Group 303" transform="translate(400.299 414.673)">
              <path id="Path_514" data-name="Path 514" d="M413.849,348.554l1.544,8.429.155.857-2.781,2.971-7.117-.246-.178-.535c-.374-1.092-1.306-3.846-2.61-7.745Q408.406,350.574,413.849,348.554Z" transform="translate(-402.861 -348.554)" fill="#f28e6f"/>
            </g>
            <path id="Path_515" data-name="Path 515" d="M425.055,363.73a86.087,86.087,0,0,1-23.8,6.6c-.709-1.8.374-4.171,1.887-5.285a19.13,19.13,0,0,1,5.17-2.176c1.773-.623,3.657-1.482,4.523-3.169a1.286,1.286,0,0,1-.027-1.762,2.742,2.742,0,0,1,1.723-.77,8.464,8.464,0,0,1,3.3.174,6.292,6.292,0,0,0,2.457.409,3,3,0,0,0,1.9-1.3c.237-.333.57-.719.877-1.116a1.437,1.437,0,0,1,2.077-.219c.14.115.269.245.4.371a11.5,11.5,0,0,0,.723,5.3A2.31,2.31,0,0,1,425.055,363.73Z" transform="translate(-11.267 67.3)" fill="#fff"/>
            <g id="Group_304" data-name="Group 304" transform="translate(461.516 384.818)">
              <path id="Path_516" data-name="Path 516" d="M352.206,328.087c1.133-1.519,2.248-3.052,3.3-4.628,4.867,2.936,8.139,4.921,8.886,5.377.107.06.167.1.167.1l-.3,5.013-4.241,4.79-.3.642-10.773-4.913Q350.666,331.319,352.206,328.087Z" transform="translate(-348.944 -323.459)" fill="#fa9778"/>
            </g>
            <path id="Path_517" data-name="Path 517" d="M357.413,332.644a86.068,86.068,0,0,1-10.781,22.218c-1.82-.659-2.881-3.038-2.716-4.91a19.115,19.115,0,0,1,1.787-5.318c.7-1.742,1.306-3.724.613-5.489a1.286,1.286,0,0,1-1.34-1.145,2.737,2.737,0,0,1,.562-1.8,8.433,8.433,0,0,1,2.31-2.358,6.31,6.31,0,0,0,1.931-1.573,3,3,0,0,0,.285-2.288c-.093-.4-.162-.9-.258-1.394a1.438,1.438,0,0,1,1.21-1.7c.18-.029.362-.039.544-.055a11.487,11.487,0,0,0,4.458,2.964A2.311,2.311,0,0,1,357.413,332.644Z" transform="translate(125.615 61.998)" fill="#fff"/>
            <path id="Path_518" data-name="Path 518" d="M350.794,323.631c.595,11.3,16.656,52.347,16.656,52.347l13.087-3.569-9.708-53.941,8.126-28.553,11.171,36.6a14.5,14.5,0,0,0,2.713,5.044,44.933,44.933,0,0,0,22.283,14.276c3.557.976,7.233,1.5,10.719,2.7a51.071,51.071,0,0,1,10.874,5.651,67.619,67.619,0,0,1,3.462-10.041c.63-1.451,1.3-2.891,2.011-4.319.083-.155.155-.321.238-.476a25.152,25.152,0,0,0-5.437-5.794,44.916,44.916,0,0,0-4.866-3.176,254.884,254.884,0,0,0-23.818-12.5s-1.19-14.871-3.771-31.717a175.686,175.686,0,0,0-7.138-29.552l-2.023.036-4.771.071-29.1.488S350.2,312.329,350.794,323.631Z" transform="translate(32.533 48.676)" fill="#45314a"/>
            <g id="Group_305" data-name="Group 305" transform="translate(423.134 305.314)">
              <path id="Path_519" data-name="Path 519" d="M350.971,256.7c1.094,17.048,4.473,61.6,10.422,66.564,5.485,4.557,32.574,17.7,39.153,20.867.631-1.451,1.3-2.891,2.011-4.319-10.327-4.961-33.645-16.489-38.118-20.2-3.153-3.034-6.841-33.93-8.7-62.983Z" transform="translate(-350.971 -256.633)" fill="#ffd592"/>
            </g>
            <g id="Group_306" data-name="Group 306" transform="translate(393.952 307.86)">
              <path id="Path_520" data-name="Path 520" d="M408.377,286.01q-2.373-6.217-4.276-12.6" transform="translate(-390.818 -255.997)" fill="none" stroke="#fff" stroke-miterlimit="10" stroke-width="0.75"/>
              <path id="Path_521" data-name="Path 521" d="M406.895,284.407l-1.624,1.944" transform="translate(-390.728 -253.91)" fill="none" stroke="#fff" stroke-miterlimit="10" stroke-width="0.75"/>
              <path id="Path_522" data-name="Path 522" d="M407.519,283.9l-1.487.595" transform="translate(-392.258 -254.007)" fill="none" stroke="#fff" stroke-miterlimit="10" stroke-width="0.75"/>
              <path id="Path_523" data-name="Path 523" d="M401.98,283.241l-1.189.3" transform="translate(-380.483 -254.131)" fill="none" stroke="#fff" stroke-miterlimit="10" stroke-width="0.75"/>
              <path id="Path_524" data-name="Path 524" d="M402.472,285.368l-1.19-.595" transform="translate(-381.559 -253.841)" fill="none" stroke="#fff" stroke-miterlimit="10" stroke-width="0.75"/>
              <path id="Path_525" data-name="Path 525" d="M411.322,305.648l1.442,3.144C412.318,308.049,411.768,306.392,411.322,305.648Z" transform="translate(-403.796 -249.881)" fill="none" stroke="#fff" stroke-miterlimit="10" stroke-width="0.75"/>
              <path id="Path_526" data-name="Path 526" d="M412,280.913c-4.41,6.437-5.882,14.418-6.631,22.187a148.284,148.284,0,0,0,1.606,40.154c1.462,8.216,5.226,15.805,7.242,23.9" transform="translate(-397.355 -254.573)" fill="none" stroke="#fff" stroke-miterlimit="10" stroke-width="0.75"/>
              <path id="Path_527" data-name="Path 527" d="M389.483,259.755a3.406,3.406,0,0,1-1.343,1.049" transform="translate(-352.936 -258.587)" fill="none" stroke="#fff" stroke-miterlimit="10" stroke-width="0.75"/>
              <path id="Path_528" data-name="Path 528" d="M423.545,260.9a10.581,10.581,0,0,0-7.029-.2,5.721,5.721,0,0,1-2.585.525,10.231,10.231,0,0,1-1.943-.775,8.012,8.012,0,0,0-3.413-.245l-6.633.482-7.782.565" transform="translate(-394.161 -258.513)" fill="none" stroke="#fff" stroke-miterlimit="10" stroke-width="0.75"/>
              <path id="Path_529" data-name="Path 529" d="M393.951,258.773a10.8,10.8,0,0,1-3.669.3" transform="translate(-359.952 -258.773)" fill="none" stroke="#45314a" stroke-miterlimit="10" stroke-width="0.75"/>
            </g>
            <g id="Group_307" data-name="Group 307" transform="translate(403.861 247.295)">
              <path id="Path_530" data-name="Path 530" d="M412.859,225.275c-2.038-5.16-.253-15.944-.026-17.276.011-.046.015-.088.026-.134l-13.829,7.777a3.65,3.65,0,0,1,.419,1.522v0a16.871,16.871,0,0,1-.3,4.232,39.674,39.674,0,0,1-.892,3.875Z" transform="translate(-398.257 -207.865)" fill="#ed8d5d"/>
              <path id="Path_531" data-name="Path 531" d="M400.144,220.576c7.518.949,11.326-8.029,11.465-8.365a8.867,8.867,0,0,1-5.366,3.85,14.745,14.745,0,0,1-5.753.294c-.015,0-.031,0-.046-.011A16.87,16.87,0,0,1,400.144,220.576Z" transform="translate(-399.252 -207.041)" fill="#45314a"/>
            </g>
            <g id="Group_309" data-name="Group 309" transform="translate(391.336 262.552)">
              <path id="Path_532" data-name="Path 532" d="M385.537,229.3c-1.212,5.292.163,10.839,1,16.233a80.3,80.3,0,0,1,.5,19.326,1.8,1.8,0,0,0,1.625,1.977c5.65.447,11.809-1.794,17.423-1.336,3.174.259,6.255,1.376,9.441,1.392a35.066,35.066,0,0,0,7.995-1,1.836,1.836,0,0,0,1.419-1.85c-.048-.8-.316-1.661-.353-2.473-.064-1.392-.387-2.76-.507-4.149a28.738,28.738,0,0,1,.691-7.571q.974-5.375,1.951-10.751c.571-3.144,1.672-6.508.9-9.582a6.038,6.038,0,0,0-2.553-3.519c-2.35-1.543-3.358-3.038-5.977-3.715-1.955-.506-5.493,0-6.742-1.587a22.6,22.6,0,0,1-15.962.992c-2.872,1.525-5.524,3.123-8.439,4.634A4.573,4.573,0,0,0,385.537,229.3Z" transform="translate(-385.059 -220.689)" fill="#ffd592"/>
              <g id="Group_308" data-name="Group 308" transform="translate(0.42 1.805)">
                <path id="Path_533" data-name="Path 533" d="M414.735,222.206a15.588,15.588,0,0,1-17.11.686" transform="translate(-387.276 -222.206)" fill="none" stroke="#45314a" stroke-miterlimit="10" stroke-width="0.75"/>
                <path id="Path_534" data-name="Path 534" d="M420.918,260.843a127.535,127.535,0,0,0-1.93-28.107" transform="translate(-418.989 -220.208)" fill="none" stroke="#45314a" stroke-miterlimit="10" stroke-width="0.75"/>
                <path id="Path_535" data-name="Path 535" d="M410.332,246.918a52.488,52.488,0,0,1-10.255-10.872" transform="translate(-385.79 -219.58)" fill="none" stroke="#45314a" stroke-miterlimit="10" stroke-width="0.75"/>
                <path id="Path_536" data-name="Path 536" d="M409.1,246.2a42.242,42.242,0,0,1-4.628-6.767" transform="translate(-389.78 -218.938)" fill="none" stroke="#45314a" stroke-miterlimit="10" stroke-width="0.75"/>
              </g>
            </g>
            <path id="Path_537" data-name="Path 537" d="M347.58,234.356c11.068,7.889,23.87,19.029,32.005,33.043a5.96,5.96,0,0,1,2.131.789c2.15,1.306,7.069,4.341,6.972,4.71-.124.471-2.032.421-2.032.421s.892,1.487-1.066,1.636c0,0,.421,1.313-1.388,1.735a1.418,1.418,0,0,1-1.115,1.487c-1.19.224-3.123-3.42-3.569-3.42s.817,2.677.3,3.2c-.478.478-2.58-.974-3.632-5.45l-.007,0c-.014-.056-.023-.119-.036-.176-.076-.34-.149-.694-.212-1.068-.746-.542-21.305-15.474-37.439-26.683C341.338,241.072,344.389,237.63,347.58,234.356Z" transform="translate(100.879 44.455)" fill="#ed8d5d"/>
            <g id="Group_311" data-name="Group 311" transform="translate(420.984 264.139)">
              <path id="Path_538" data-name="Path 538" d="M401.762,239.025s-5.2,10.559-10.162,12.641L368.2,236.5s-5.255-10.31,2.677-14.474C370.88,222.023,385.5,224.451,401.762,239.025Z" transform="translate(-366.496 -222.023)" fill="#ffd592"/>
              <g id="Group_310" data-name="Group 310" transform="translate(8.157 16.237)">
                <path id="Path_539" data-name="Path 539" d="M389.787,240.037a12.948,12.948,0,0,1-3.169-2.682" transform="translate(-386.618 -235.352)" fill="none" stroke="#45314a" stroke-miterlimit="10" stroke-width="0.75"/>
                <path id="Path_540" data-name="Path 540" d="M389.03,239.856a6.376,6.376,0,0,1-2.094-.017" transform="translate(-386.239 -234.88)" fill="none" stroke="#45314a" stroke-miterlimit="10" stroke-width="0.75"/>
                <path id="Path_541" data-name="Path 541" d="M376.958,235.671a12.589,12.589,0,0,1-3.26,5.11l-5.863,6.54" transform="translate(-351.442 -235.671)" fill="none" stroke="#45314a" stroke-miterlimit="10" stroke-width="0.75"/>
              </g>
            </g>
            <g id="Group_312" data-name="Group 312" transform="translate(350.218 295.576)">
              <path id="Path_542" data-name="Path 542" d="M424.716,268.589c3.858-1.812,12.942-6.112,22.874-10.892,1.033-3.113,2.057-6.232,3.037-9.25,1.011.431,2.012.851,2.986,1.262,3.118,1.317,6.294,2.81,9.509,4.32-1.2,3.45-2.574,7.042-4.178,10.684a6.86,6.86,0,0,1-3.951,3.692,110.931,110.931,0,0,1-12.217,3.663,141.14,141.14,0,0,1-26.355,3.844l.739-1.327-1.091-3.619S423.459,269.18,424.716,268.589Z" transform="translate(-416.069 -248.447)" fill="#ed8d5d"/>
            </g>
            <g id="Group_313" data-name="Group 313" transform="translate(382.747 265.737)">
              <path id="Path_543" data-name="Path 543" d="M425.586,223.366s-6.172,1.124-8.125,8.555S410,256.341,410,256.341s8.437,6.741,15.106,6.768C425.1,263.109,439.722,226.934,425.586,223.366Z" transform="translate(-409.997 -223.366)" fill="#ffd592"/>
              <path id="Path_544" data-name="Path 544" d="M429.048,256.781a39.306,39.306,0,0,1-12.378-7.392" transform="translate(-415.238 -218.429)" fill="none" stroke="#45314a" stroke-miterlimit="10" stroke-width="0.75"/>
            </g>
            <path id="Path_545" data-name="Path 545" d="M395.027,206.573a35.131,35.131,0,0,1,2.011-10.767c1.808-4.64,10.315-6.448,16.251-1.3a4.954,4.954,0,0,1,.5.5c2.331,2.473,2.835,6.509,2.682,10.214a2.021,2.021,0,0,1,.351-.143,2.471,2.471,0,0,1,2.784,1.745,3.273,3.273,0,0,1-.424,2.723,4.124,4.124,0,0,1-1.871,1.563,5.286,5.286,0,0,1-1.612.158,11.926,11.926,0,0,1-3.956,6.724,10.819,10.819,0,0,1-9.208,2.332c-2.57-.523-6.377-2.177-7.317-4.842a6.684,6.684,0,0,1-.286-2.177C394.909,211.165,394.909,208.881,395.027,206.573Z" transform="translate(2.695 36.306)" fill="#ed8d5d"/>
            <g id="Group_322" data-name="Group 322" transform="translate(398.237 235.581)">
              <g id="Group_317" data-name="Group 317" transform="translate(2.19 4.289)">
                <g id="Group_316" data-name="Group 316">
                  <g id="Group_314" data-name="Group 314">
                    <path id="Path_546" data-name="Path 546" d="M413.661,203.184c0,.861-.34,1.56-.761,1.56s-.761-.7-.761-1.56.34-1.56.761-1.56S413.661,202.322,413.661,203.184Z" transform="translate(-412.138 -201.624)" fill="#45314a"/>
                  </g>
                  <g id="Group_315" data-name="Group 315" transform="translate(6.598)">
                    <path id="Path_547" data-name="Path 547" d="M406.591,203.184c0,.861.341,1.56.763,1.56s.761-.7.761-1.56-.341-1.56-.761-1.56S406.591,202.322,406.591,203.184Z" transform="translate(-406.591 -201.624)" fill="#45314a"/>
                  </g>
                </g>
              </g>
              <g id="Group_319" data-name="Group 319" transform="translate(3.39 10.567)">
                <g id="Group_318" data-name="Group 318">
                  <path id="Path_548" data-name="Path 548" d="M407.6,206.9a3.737,3.737,0,0,0,1.148,1.306,2.919,2.919,0,0,0,1.706.566,2.958,2.958,0,0,0,1.7-.587,5.61,5.61,0,0,0,.658-.585c.178-.231.355-.462.512-.7-.236.173-.45.356-.666.533-.24.146-.453.326-.7.447a3.135,3.135,0,0,1-1.506.428,3.061,3.061,0,0,1-1.512-.408A6.582,6.582,0,0,1,407.6,206.9Z" transform="translate(-407.6 -206.901)" fill="#45314a"/>
                  <path id="Path_549" data-name="Path 549" d="M409.33,209.226a1.257,1.257,0,0,0,.8.271,1.316,1.316,0,0,0,.8-.271,4.148,4.148,0,0,1-.8.089A3.479,3.479,0,0,1,409.33,209.226Z" transform="translate(-407.272 -206.46)" fill="#45314a"/>
                </g>
              </g>
              <g id="Group_321" data-name="Group 321">
                <g id="Group_320" data-name="Group 320">
                  <path id="Path_550" data-name="Path 550" d="M404.879,198.457a1.809,1.809,0,0,1,1.18-.437,3.642,3.642,0,0,1,1.257.178,3.071,3.071,0,0,1,1.106.634,3.238,3.238,0,0,1,.757.968.365.365,0,0,1-.565.446l-.032-.029a4.484,4.484,0,0,0-.752-.6,2.654,2.654,0,0,0-.83-.341,3.241,3.241,0,0,0-.9-.087,3.414,3.414,0,0,1-.961-.056l-.1-.024a.381.381,0,0,1-.281-.462A.374.374,0,0,1,404.879,198.457Z" transform="translate(-396.724 -198.019)" fill="#45314a"/>
                  <path id="Path_551" data-name="Path 551" d="M415.843,198.457a1.809,1.809,0,0,0-1.18-.437,3.635,3.635,0,0,0-1.258.178,3.077,3.077,0,0,0-1.108.634,3.213,3.213,0,0,0-.755.968.365.365,0,0,0,.565.446l.031-.029a4.547,4.547,0,0,1,.753-.6,2.643,2.643,0,0,1,.83-.341,3.229,3.229,0,0,1,.9-.087,3.422,3.422,0,0,0,.962-.056l.1-.024a.382.382,0,0,0,.281-.462A.39.39,0,0,0,415.843,198.457Z" transform="translate(-411.497 -198.019)" fill="#45314a"/>
                </g>
              </g>
              <path id="Path_552" data-name="Path 552" d="M411.157,200.809c-.134.588-.233,1.172-.343,1.75s-.219,1.152-.382,1.7c-.038.138-.081.272-.13.4a1.432,1.432,0,0,0-.132.5,1.012,1.012,0,0,0,.546.924,1.232,1.232,0,0,0,.995.054,2.431,2.431,0,0,0,.788-.471c-.547.206-1.185.366-1.57.075a.6.6,0,0,1-.27-.556,1.1,1.1,0,0,1,.114-.346c.058-.146.111-.294.155-.441a8.314,8.314,0,0,0,.286-1.794A9.379,9.379,0,0,0,411.157,200.809Z" transform="translate(-406.446 -197.49)" fill="#45314a"/>
              <path id="Path_553" data-name="Path 553" d="M398.923,205.149a1.291,1.291,0,0,0-.406-1.031,1.207,1.207,0,0,0-1.177-.114,2.214,2.214,0,0,0-.951.694,3.551,3.551,0,0,0-.59,1,.26.26,0,0,0,.426.281l.018-.018a2.3,2.3,0,0,1,.873-.619.409.409,0,0,1,.366.04.968.968,0,0,1,.262.406c.133.341.213.741-.079.9a1.962,1.962,0,0,1-1.154.079,1.817,1.817,0,0,0,1.268.17.718.718,0,0,0,.449-.6,1.864,1.864,0,0,0-.075-.69,1.293,1.293,0,0,0-.369-.638.874.874,0,0,0-.8-.164,2.5,2.5,0,0,0-1.136.765l.444.262a2.779,2.779,0,0,1,1.2-1.5.976.976,0,0,1,.887-.054A1.3,1.3,0,0,1,398.923,205.149Z" transform="translate(-375.752 -196.902)" fill="#45314a"/>
            </g>
            <path id="Path_554" data-name="Path 554" d="M400.708,194.148a15.833,15.833,0,0,1-3.272,2.677,11.892,11.892,0,0,0,2.429,8.377,5.982,5.982,0,0,1,.67,2.892.141.141,0,0,0,.233.13,8.973,8.973,0,0,0,2.319-3.567S404.625,198.312,400.708,194.148Z" transform="translate(16.132 36.828)" fill="#994831"/>
            <path id="Path_555" data-name="Path 555" d="M412.768,199.117a9.235,9.235,0,0,1-3.18,3.378,3.646,3.646,0,0,1-2.068.676c-.735-.038-1.712-.419-1.832-1.146a4.159,4.159,0,0,0-.608,1.912,13.8,13.8,0,0,1-.272,2.007c-.175.653-.393,1.356-1.045,1.534a1.646,1.646,0,0,1-1.46-.39,3.274,3.274,0,0,1-.857-1.3,6.609,6.609,0,0,1,.146-5.122,2.213,2.213,0,0,1-2.1-2.108,5.623,5.623,0,0,1,.905-3.117,9.228,9.228,0,0,1,1.832-2.514,3.692,3.692,0,0,1,2.774-.972,3.144,3.144,0,0,1-.537-1.156,1.686,1.686,0,0,1,.2-1.237,1.706,1.706,0,0,1,1.153-.7,3.463,3.463,0,0,1,1.374.093,7.667,7.667,0,0,1,3.125,1.47,2.443,2.443,0,0,1,1-2.684,3.653,3.653,0,0,1,2.952-.419,7.479,7.479,0,0,1,2.691,1.44,16.062,16.062,0,0,1,5.225,6.855,13.867,13.867,0,0,1-4.195,3.808A4.792,4.792,0,0,1,412.768,199.117Z" transform="translate(-5.177 35.508)" fill="#c25b3e"/>
            <path id="Path_556" data-name="Path 556" d="M440.152,368.19c-5.874-.493-11.748-.75-17.622-.924-5.875-.19-11.748-.24-17.623-.264-5.874.02-11.748.071-17.622.261-5.875.174-11.748.433-17.623.928,5.875.495,11.748.754,17.623.928,5.874.189,11.748.24,17.622.261,5.875-.024,11.748-.074,17.623-.264C428.4,368.939,434.278,368.682,440.152,368.19Z" transform="translate(12.331 69.619)" fill="#d2d1fc"/>
            <path id="Path_557" data-name="Path 557" d="M572.671,357.59l.044,3.7.008.868-4.551,3.247-5.659-2.233-.086-.569c-.1-.59-.261-1.627-.483-3.038A97.917,97.917,0,0,0,572.671,357.59Z" transform="translate(-349 67.833)" fill="#db6a3d"/>
            <path id="Path_558" data-name="Path 558" d="M561.426,369.357a2.283,2.283,0,0,1,.463-3.135,5.7,5.7,0,0,1,2.561-.432,15.9,15.9,0,0,0,4.881-1.413,13.706,13.706,0,0,0,4.184-2.321,9.838,9.838,0,0,1,1.717-1.506,3.24,3.24,0,0,1,3.1.062,4.119,4.119,0,0,1,1.889,2.525,6.24,6.24,0,0,0,4.591-1.683,4.723,4.723,0,0,1,.889-.8,1.063,1.063,0,0,1,1.135-.033,1.523,1.523,0,0,1,.421,1.261q.03,1.947.062,3.894c.017,1.1-.056,2.387-.96,3.012Z" transform="translate(-362.484 68.325)" fill="#45314a"/>
            <path id="Path_559" data-name="Path 559" d="M467.069,347.135l7.716-.092,2.985,3.87-1.971,6.341s-2.865.458-7.632,1.2Q467.7,352.785,467.069,347.135Z" transform="translate(-141.173 65.832)" fill="#db6a3d"/>
            <path id="Path_560" data-name="Path 560" d="M472.128,371.626a2.283,2.283,0,0,1-3.135-.463,5.7,5.7,0,0,1-.432-2.561,15.892,15.892,0,0,0-1.413-4.881,13.709,13.709,0,0,0-2.321-4.184,9.887,9.887,0,0,1-1.506-1.717,3.24,3.24,0,0,1,.062-3.1,4.118,4.118,0,0,1,2.525-1.889,6.24,6.24,0,0,0-1.684-4.591,4.728,4.728,0,0,1-.8-.889,1.062,1.062,0,0,1-.033-1.135,1.523,1.523,0,0,1,1.261-.421l3.894-.062c1.1-.017,2.387.056,3.012.96Z" transform="translate(-130.636 65.584)" fill="#45314a"/>
            <path id="Path_561" data-name="Path 561" d="M540.442,297.33s5.939,12.206,6.612,21.86,7.112,36.724,7.112,36.724l42.7.334,1.306,11.274s-49.332,8.6-56.946,7.439-17.762-53.133-17.762-53.133l-11.023-.633-23.113,10.214.636,39.7-12.191.287s-8.5-48.762-7.462-51.59c1.537-4.2,39.336-22.495,39.336-22.495Z" transform="translate(-265.33 56.398)" fill="#ffd592"/>
            <g id="Group_323" data-name="Group 323" transform="translate(221.548 358.474)">
              <path id="Path_562" data-name="Path 562" d="M537.628,301.316l1.361,19.9-5.935-5.662.481-11.168" transform="translate(-502.442 -301.316)" fill="none" stroke="#45314a" stroke-miterlimit="10" stroke-width="0.75"/>
              <path id="Path_563" data-name="Path 563" d="M510.63,350.141q-.56-1.847-1.12-3.7c-.983.37-1.98.9-2.962,1.266" transform="translate(-442.548 -292.755)" fill="none" stroke="#45314a" stroke-miterlimit="10" stroke-width="0.75"/>
              <path id="Path_564" data-name="Path 564" d="M562.165,326.417l-.792-2.064" transform="translate(-559.309 -296.946)" fill="none" stroke="#45314a" stroke-miterlimit="10" stroke-width="0.75"/>
              <path id="Path_565" data-name="Path 565" d="M563.56,326.273q-.466-.882-.934-1.763" transform="translate(-562.194 -296.916)" fill="none" stroke="#45314a" stroke-miterlimit="10" stroke-width="0.75"/>
              <path id="Path_566" data-name="Path 566" d="M568.655,313.285l-30.612,13.96,1.816,39.228" transform="translate(-538.043 -299.046)" fill="none" stroke="#45314a" stroke-miterlimit="10" stroke-width="0.75"/>
              <path id="Path_567" data-name="Path 567" d="M528.749,313.318a15.572,15.572,0,0,0-6.29,3.7" transform="translate(-479.597 -299.04)" fill="none" stroke="#45314a" stroke-miterlimit="10" stroke-width="0.75"/>
              <path id="Path_568" data-name="Path 568" d="M527.841,316.031l-4.116,2.078" transform="translate(-480.195 -298.525)" fill="none" stroke="#45314a" stroke-miterlimit="10" stroke-width="0.75"/>
              <path id="Path_569" data-name="Path 569" d="M546.042,313.514l-3.161-2.786" transform="translate(-521.186 -299.531)" fill="none" stroke="#45314a" stroke-miterlimit="10" stroke-width="0.75"/>
              <path id="Path_570" data-name="Path 570" d="M546.408,314.14l-1.628-1.748" transform="translate(-523.813 -299.215)" fill="none" stroke="#45314a" stroke-miterlimit="10" stroke-width="0.75"/>
            </g>
            <g id="Group_324" data-name="Group 324" transform="translate(241.607 295.282)">
              <path id="Path_571" data-name="Path 571" d="M520.4,270.006c2.919-1.849,4.942-2.55,6.348-4.338.145-.578.485-2,.728-3.616a16.808,16.808,0,0,0,.2-4.237v0a3.659,3.659,0,0,0-.453-1.512l13.641-8.1c-.008.046-.013.088-.023.134-.188,1.291-1.612,11.412.233,16.708a10.1,10.1,0,0,0,3.909.776,7.089,7.089,0,0,1,4.67,1.73c1.777,1.593,3.344,4.624,2.5,10.375-1.692,11.5-3.224,21.937-2.308,28.9l-28.328.666s-.564-11.288-1.623-19.621C518.932,280.271,515.957,272.823,520.4,270.006Z" transform="translate(-518.027 -248.2)" fill="#db6a3d"/>
              <path id="Path_572" data-name="Path 572" d="M529.5,261.22c7.539.772,11.134-8.292,11.266-8.631a8.871,8.871,0,0,1-5.275,3.975,14.72,14.72,0,0,1-5.744.429c-.017,0-.032,0-.048-.009A16.811,16.811,0,0,1,529.5,261.22Z" transform="translate(-520.042 -247.367)" fill="#45314a"/>
            </g>
            <g id="Group_326" data-name="Group 326" transform="translate(241.059 311.852)">
              <path id="Path_573" data-name="Path 573" d="M540.449,262.2l-10.25,6.885-4.5-5.844-5.38,3.482a7.4,7.4,0,0,0-3.362,5.382,20.61,20.61,0,0,0,.054,5.421c.7,4.248,1.944,25.689.7,27.7l9.658,7.953L532.6,308.1,536,313.279l13.708-7.463,2.541,2.617s-2.435-10.751-1.966-16.118,2.892-28.828,2.892-28.828A43.851,43.851,0,0,0,540.449,262.2Z" transform="translate(-516.802 -262.128)" fill="#ffa8b9"/>
              <path id="Path_574" data-name="Path 574" d="M542.56,268.909l-4.5-5.844-1.946,7.93Z" transform="translate(-529.164 -261.95)" fill="#ffc9d3"/>
              <path id="Path_575" data-name="Path 575" d="M527.5,269.075l10.251-6.886-6.247,10.56Z" transform="translate(-514.101 -262.116)" fill="#ffc9d3"/>
              <g id="Group_325" data-name="Group 325" transform="translate(2.394 7.255)">
                <path id="Path_576" data-name="Path 576" d="M533.986,268.226l2.7,38.755" transform="translate(-523.155 -268.226)" fill="none" stroke="#45314a" stroke-miterlimit="10" stroke-width="0.75"/>
                <path id="Path_577" data-name="Path 577" d="M532.908,298.119a74.468,74.468,0,0,0-11.884,5.979" transform="translate(-503.954 -262.555)" fill="none" stroke="#45314a" stroke-miterlimit="10" stroke-width="0.75"/>
                <path id="Path_578" data-name="Path 578" d="M546.732,304.383a48.78,48.78,0,0,0-8.6-6.954" transform="translate(-538.134 -262.686)" fill="none" stroke="#45314a" stroke-miterlimit="10" stroke-width="0.75"/>
              </g>
            </g>
            <g id="Group_327" data-name="Group 327" transform="translate(188.776 257.114)">
              <path id="Path_579" data-name="Path 579" d="M586.2,255.857c-1.6,1.68-3.122,3.4-4.668,5.063-8.41-9.436-16.995-21.468-21.478-35.153l4.421-2.5s13.733,14.708,26.547,28.009Q588.512,253.441,586.2,255.857Z" transform="translate(-553.827 -214.763)" fill="#db6a3d"/>
              <path id="Path_580" data-name="Path 580" d="M589.714,228.587s-7.007-4.248-8.593-6.844a.217.217,0,0,1,.211-.337c.412.031,1.247.325,2.843,1.6,0,0-2.618-3.464-2.51-4.248s4.064,3.136,4.064,3.136-2.528-4.215-2.159-4.839,3.81,3.718,3.81,3.718-2.356-4.5-1.963-4.637c.979-.347,4.457,5.876,5.072,5.431.544-.4.344-2.152.087-3.029a.3.3,0,0,1,.245-.4c.377-.058.97.015,1.3.918a16.245,16.245,0,0,1,.964,8.272Z" transform="translate(-581.084 -216.118)" fill="#db6a3d"/>
            </g>
            <g id="Group_329" data-name="Group 329" transform="translate(213.755 292.265)">
              <g id="Group_328" data-name="Group 328">
                <path id="Path_581" data-name="Path 581" d="M574.558,266.263l-24.371-20.054-10.29,9.464s3.3,5.476,4.419,6.541,18.237,16.43,22.529,17.618C566.845,279.832,570.343,268.345,574.558,266.263Z" transform="translate(-538.359 -245.561)" fill="#ffa8b9"/>
                <path id="Path_582" data-name="Path 582" d="M568.464,251.861a17.5,17.5,0,0,1-5.667,4.5,2.109,2.109,0,0,1-1.181.272.81.81,0,0,1-.726-.834.576.576,0,0,1-.817-.193.936.936,0,0,1,.042-.912,2.739,2.739,0,0,1,.641-.7c3.022-2.611,6.1-5.154,9.273-7.584.481-.369,1.335-1.034,1.963-.6.71.489-.04,1.3-.359,1.775A41.191,41.191,0,0,1,568.464,251.861Z" transform="translate(-559.972 -245.664)" fill="#ffc9d3"/>
              </g>
              <path id="Path_583" data-name="Path 583" d="M547.308,268.077a18.308,18.308,0,0,0-1.572,6.884" transform="translate(-518.058 -241.412)" fill="none" stroke="#45314a" stroke-miterlimit="10" stroke-width="0.75"/>
            </g>
            <path id="Path_584" data-name="Path 584" d="M457.943,266.019c15.295,1.1,29.506,1.957,30.191,2l0,0a12.744,12.744,0,0,0,5.172-.755c-.175.155-.264.276-.183.341.344.284,3.69-1.375,4.467-.447a2,2,0,0,1,.378,1.932c1.129,1.475-.031,2.221-.031,2.221,1.417,1.36-.472,1.593-.472,1.593a7.474,7.474,0,0,1-.35.974c-.158.346-3.98.553-6.47.2a5.982,5.982,0,0,1-2.146-.745c-10.967,4.081-22.865,5.457-33.736,5.553A48.952,48.952,0,0,1,457.943,266.019Z" transform="translate(-147.231 50.462)" fill="#db6a3d"/>
            <path id="Path_585" data-name="Path 585" d="M462.85,266.783a39,39,0,0,0-5,.079c-.79.224-3.8,5.712-3.975,6.1s.915.138,1.766.231c0,0,.441.848,1.135.92a2.219,2.219,0,0,0,1.727,1.014s.3.374,1.381.372,4.642-3.681,4.94-4.114S462.85,266.783,462.85,266.783Z" transform="translate(-112.524 50.598)" fill="#ed8d5d"/>
            <path id="Path_586" data-name="Path 586" d="M454.8,266.86s3.45-.739,4.1-.732.887,2.027-.1,2.118a2,2,0,0,1-1.639-.97Z" transform="translate(-108.271 50.483)" fill="#db6a3d"/>
            <g id="Group_332" data-name="Group 332" transform="translate(265.41 312.33)">
              <g id="Group_330" data-name="Group 330" transform="translate(4.854)">
                <path id="Path_587" data-name="Path 587" d="M487.128,262.53l42.94,4.246s-.406,12.208-1.093,12.52-10.874,1.447-12.873.8-27.348-3.224-27.348-3.224S480.711,263.772,487.128,262.53Z" transform="translate(-484.644 -262.53)" fill="#ffa8b9"/>
                <path id="Path_588" data-name="Path 588" d="M488.409,265.6a46.11,46.11,0,0,1-.431,11.827,3.914,3.914,0,0,1-.582,1.712,1.419,1.419,0,0,1-1.593.575c-.193.556-1.326.212-1.65-.281a2.414,2.414,0,0,1-.147-1.717,107.03,107.03,0,0,1,2.259-11.161,2.315,2.315,0,0,1,.764-1.378C487.471,264.871,488.359,265.061,488.409,265.6Z" transform="translate(-442.322 -262.056)" fill="#ffc9d3"/>
              </g>
              <g id="Group_331" data-name="Group 331" transform="translate(0 0.124)">
                <path id="Path_589" data-name="Path 589" d="M520.75,274.944l-2.686-.183" transform="translate(-510.232 -260.333)" fill="none" stroke="#45314a" stroke-miterlimit="10" stroke-width="0.75"/>
                <path id="Path_590" data-name="Path 590" d="M523.881,262.634a18.208,18.208,0,0,0,3.6,10.31" transform="translate(-523.881 -262.634)" fill="none" stroke="#45314a" stroke-miterlimit="10" stroke-width="0.75"/>
              </g>
            </g>
            <path id="Path_591" data-name="Path 591" d="M526.224,236.544c1.7-4.685,10.165-6.691,16.218-1.673,2.814,2.333,3.5,6.664,3.425,10.634a2.146,2.146,0,0,1,.352-.153,2.471,2.471,0,0,1,2.824,1.679,3.273,3.273,0,0,1-.359,2.733,4.113,4.113,0,0,1-1.834,1.607,5.3,5.3,0,0,1-1.6.2,11.99,11.99,0,0,1-3.794,6.819,10.842,10.842,0,0,1-9.161,2.55c-2.58-.472-6.421-2.03-7.427-4.673a6.75,6.75,0,0,1-.328-2.174C524.333,248.473,524.285,241.9,526.224,236.544Z" transform="translate(-280.856 43.997)" fill="#db6a3d"/>
            <g id="Group_341" data-name="Group 341" transform="translate(243.999 283.823)">
              <g id="Group_336" data-name="Group 336" transform="translate(2.279 4.285)">
                <g id="Group_335" data-name="Group 335">
                  <g id="Group_333" data-name="Group 333" transform="translate(0 0.155)">
                    <path id="Path_592" data-name="Path 592" d="M543.229,243.843c.02.861-.3,1.568-.726,1.578s-.778-.681-.8-1.542.3-1.567.726-1.578S543.209,242.982,543.229,243.843Z" transform="translate(-541.704 -242.301)" fill="#45314a"/>
                  </g>
                  <g id="Group_334" data-name="Group 334" transform="translate(6.597)">
                    <path id="Path_593" data-name="Path 593" d="M536.16,243.749c.02.861.378,1.551.8,1.541s.746-.716.726-1.576-.378-1.551-.8-1.542S536.14,242.887,536.16,243.749Z" transform="translate(-536.159 -242.171)" fill="#45314a"/>
                  </g>
                </g>
              </g>
              <g id="Group_338" data-name="Group 338" transform="translate(3.592 10.573)">
                <g id="Group_337" data-name="Group 337">
                  <path id="Path_594" data-name="Path 594" d="M537.076,247.59a3.726,3.726,0,0,0,1.179,1.279,2.92,2.92,0,0,0,1.718.526,2.966,2.966,0,0,0,1.683-.626,5.61,5.61,0,0,0,.644-.6c.174-.236.344-.47.495-.713-.231.177-.441.366-.653.548-.237.151-.446.335-.686.464a3.151,3.151,0,0,1-1.5.463,3.071,3.071,0,0,1-1.522-.372A6.556,6.556,0,0,1,537.076,247.59Z" transform="translate(-537.076 -247.456)" fill="#45314a"/>
                  <path id="Path_595" data-name="Path 595" d="M538.751,249.858a1.252,1.252,0,0,0,.808.253,1.312,1.312,0,0,0,.8-.291,4.1,4.1,0,0,1-.8.109A3.466,3.466,0,0,1,538.751,249.858Z" transform="translate(-536.628 -247.008)" fill="#45314a"/>
                </g>
              </g>
              <g id="Group_340" data-name="Group 340">
                <g id="Group_339" data-name="Group 339">
                  <path id="Path_596" data-name="Path 596" d="M534.519,239.038a1.806,1.806,0,0,1,1.169-.464,3.615,3.615,0,0,1,1.261.149,3.046,3.046,0,0,1,1.122.608,3.227,3.227,0,0,1,.779.951.365.365,0,0,1-.556.459l-.031-.029a4.65,4.65,0,0,0-.766-.579,2.643,2.643,0,0,0-.839-.321,3.247,3.247,0,0,0-.9-.067,3.443,3.443,0,0,1-.964-.032l-.1-.021a.382.382,0,0,1-.291-.454A.386.386,0,0,1,534.519,239.038Z" transform="translate(-526.403 -238.569)" fill="#45314a"/>
                  <path id="Path_597" data-name="Path 597" d="M545.475,239.1a1.8,1.8,0,0,0-1.191-.409,3.66,3.66,0,0,0-1.253.207,3.088,3.088,0,0,0-1.092.66,3.23,3.23,0,0,0-.732.986.365.365,0,0,0,.576.433l.03-.03a4.533,4.533,0,0,1,.738-.615,2.639,2.639,0,0,1,.823-.36,3.259,3.259,0,0,1,.9-.108,3.454,3.454,0,0,0,.961-.079l.1-.025a.381.381,0,0,0,.147-.66Z" transform="translate(-541.166 -238.545)" fill="#45314a"/>
                </g>
              </g>
              <path id="Path_598" data-name="Path 598" d="M540.578,241.453c-.121.59-.207,1.177-.3,1.757s-.192,1.156-.343,1.706c-.035.138-.074.275-.12.406a1.454,1.454,0,0,0-.12.507,1.014,1.014,0,0,0,.569.911,1.23,1.23,0,0,0,1,.03,2.414,2.414,0,0,0,.776-.489c-.541.218-1.177.394-1.568.112a.6.6,0,0,1-.283-.55,1.1,1.1,0,0,1,.106-.349c.055-.148.1-.3.144-.445a8.321,8.321,0,0,0,.244-1.8A9.657,9.657,0,0,0,540.578,241.453Z" transform="translate(-535.834 -238.022)" fill="#45314a"/>
              <path id="Path_599" data-name="Path 599" d="M528.433,245.423A1.3,1.3,0,0,0,528,244.4a1.208,1.208,0,0,0-1.179-.086,2.224,2.224,0,0,0-.934.715,3.533,3.533,0,0,0-.566,1.01.26.26,0,0,0,.432.27l.018-.018a2.288,2.288,0,0,1,.858-.639.4.4,0,0,1,.368.032.953.953,0,0,1,.271.4c.142.339.231.736-.057.9a1.952,1.952,0,0,1-1.152.106,1.809,1.809,0,0,0,1.272.14.714.714,0,0,0,.433-.608,1.828,1.828,0,0,0-.09-.689,1.294,1.294,0,0,0-.383-.628.873.873,0,0,0-.8-.146,2.516,2.516,0,0,0-1.118.791l.45.252a2.787,2.787,0,0,1,1.161-1.526.976.976,0,0,1,.885-.074A1.3,1.3,0,0,1,528.433,245.423Z" transform="translate(-505.119 -237.5)" fill="#45314a"/>
            </g>
            <path id="Path_600" data-name="Path 600" d="M523.795,239.19a3.732,3.732,0,0,1-.921-3.714,4.529,4.529,0,0,1,2.683-2.812,6.085,6.085,0,0,1,4.078-.168,7.689,7.689,0,0,1,8.448-3.555c3.2.794,5.574,3.725,6.482,6.893a5.711,5.711,0,0,1,5.827,3.385c1.028,2.189.57,4.961-.186,7.251a6.564,6.564,0,0,1-2.755,10.847,3.578,3.578,0,0,1-.069,3.156,2.74,2.74,0,0,1-2.514,1.4,65.2,65.2,0,0,1,.689-9.7,5.226,5.226,0,0,0,1.578-.192,4.117,4.117,0,0,0,1.843-1.614,3.274,3.274,0,0,0,.352-2.722,2.486,2.486,0,0,0-2.67-1.706,6.238,6.238,0,0,0-1.223,1.292,15.178,15.178,0,0,1-1.863,2.433,2.853,2.853,0,0,1-2.815.741,1.761,1.761,0,0,0,.76-1.976,14.161,14.161,0,0,0-.851-2.118,5.419,5.419,0,0,1,.056-3.951,2.841,2.841,0,0,1-1.869-1.219,3.111,3.111,0,0,1-.566-2.271,5.471,5.471,0,0,1-4.512,3.469,5.675,5.675,0,0,1-5.2-2.58,2.914,2.914,0,0,1-.533,2.824,3.453,3.453,0,0,1-2.86,1.305,8.407,8.407,0,0,1,.413,2.221,3.137,3.137,0,0,1-.823,2.119l-.017-.177,0,.077a2.741,2.741,0,0,1-.48-2.654,4.051,4.051,0,0,1-1.974-2.989A4.215,4.215,0,0,1,523.795,239.19Z" transform="translate(-281.144 43.388)" fill="#fff"/>
            <path id="Path_601" data-name="Path 601" d="M609.465,368.19q-18.726-.689-37.451-.924c-12.484-.19-24.967-.24-37.451-.264-12.484.02-24.967.071-37.451.261q-18.725.232-37.451.928,18.725.694,37.451.928c12.483.189,24.967.24,37.451.261,12.483-.024,24.967-.074,37.451-.264Q590.739,368.88,609.465,368.19Z" transform="translate(-264.055 69.619)" fill="#d2d1fc"/>
          </g>
        </g>
      </g>
    </g>
  </g>
</svg>
