<?xml version="1.0" encoding="utf-8"?>
<!-- Generator: Adobe Illustrator 23.0.1, SVG Export Plug-In . SVG Version: 6.00 Build 0)  -->
<svg version="1.1" id="Layer_1" xmlns="http://www.w3.org/2000/svg" xmlns:xlink="http://www.w3.org/1999/xlink" x="0px" y="0px"
	 viewBox="0 0 29.7 24" style="enable-background:new 0 0 29.7 24;" xml:space="preserve">
<style type="text/css">
	.st0{fill-rule:evenodd;clip-rule:evenodd;fill:#FFFFFF;}
</style>
<path class="st0" d="M29.7,23.8v-0.6L27.5,21c-0.2-0.2-0.4-0.4-0.2-0.7V3.5c0-0.2,0-0.6,0.2-0.7l2.2-2.2V0h-8.2l-5.9,14.7L8.9,0H0.4
	v0.6l2.8,3.3c0.2,0.4,0.4,0.6,0.4,0.9v13.2c0,0.6,0,0.9-0.4,1.3L0,23.1v0.6h8.9v-0.6l-3.2-3.7c-0.4-0.4-0.6-0.7-0.4-1.3V6.7
	l7.8,16.9h0.9l6.7-16.9v13.6c0,0.4,0,0.4-0.2,0.7l-2.4,2.4V24C18,23.8,29.7,23.8,29.7,23.8z"/>
</svg>
